<svg width="1203" height="1080" viewBox="0 0 1203 1080" fill="none" xmlns="http://www.w3.org/2000/svg">
<path d="M882.934 93.7486H1057.7C1057.7 93.7486 1042.25 65.627 997.255 69.8266C954.302 73.7339 952.069 55.9785 930.273 53.8786C908.478 51.7788 890.217 68.2584 882.934 93.7486Z" fill="#E0E0E0"/>
<path d="M426.131 555.762C426.131 555.762 408.614 565.225 434.105 601.799C459.595 638.373 476.181 655.916 476.181 655.916C476.181 655.916 481.018 664.554 473.523 667.026C466.027 669.498 448.724 669.152 446.597 679.014C444.391 689.273 452.764 697.62 468.233 703.6C483.703 709.581 517.14 724.279 520.144 725.608C523.148 726.937 526.443 730.792 521.606 733.29C516.768 735.789 479.264 745.012 484.686 762.528C490.109 780.044 536.039 789.959 541.036 791.128C546.033 792.298 547.442 794.158 547.415 796.816C547.388 799.474 534.497 801.388 523.918 804.445C513.34 807.501 501.644 812.924 505.631 822.785C509.618 832.646 538.484 850.534 602.223 848.009L631.674 844.926L644.219 817.947C667.53 758.594 660.167 725.449 652.193 718.432C644.219 711.415 635.235 720.718 628.883 729.702C622.53 738.686 616.47 750.221 613.945 749.371C611.42 748.52 610.144 746.58 610.675 741.397C611.207 736.214 616.975 689.672 602.196 678.774C587.418 667.877 566.367 700.251 562.326 703.999C558.286 707.747 555.814 703.334 555.549 700.092C555.283 696.849 552.492 660.461 551.827 643.822C551.163 627.183 546.139 616.604 535.746 615.328C525.354 614.052 520.383 630.532 515.572 636.805C510.761 643.078 504.196 635.662 504.196 635.662C504.196 635.662 493.059 614.238 466.984 578.143C440.909 542.047 425.785 556.028 425.785 556.028" fill="#EBEBEB"/>
<path d="M634.146 851.651C615.035 825.071 581.889 777.227 553.21 736.32C524.53 695.414 498.561 658.414 479.583 631.728C470.094 618.438 462.439 607.646 457.096 600.177L450.983 591.565L449.415 589.333C449.069 588.828 448.91 588.535 448.91 588.535C448.91 588.535 449.122 588.775 449.494 589.28L451.142 591.459L457.389 599.965C462.705 607.327 470.679 618.066 480.115 631.356C499.226 657.936 525.301 694.882 553.954 735.789C582.607 776.695 615.699 824.592 634.677 851.252" fill="#E0E0E0"/>
<path d="M470.785 680.502C471.501 680.532 472.213 680.629 472.911 680.794C474.267 681.034 476.207 681.432 478.626 681.964C483.437 683.001 490.029 684.622 497.232 686.536L515.838 691.506L521.473 692.995C522.178 693.115 522.865 693.32 523.52 693.606C522.803 693.597 522.09 693.508 521.393 693.34C520.038 693.101 518.097 692.702 515.679 692.144C510.894 691.054 504.302 689.486 497.073 687.439L478.467 682.602L472.832 681.14C472.124 681.021 471.435 680.806 470.785 680.502Z" fill="#E0E0E0"/>
<path d="M525.274 691.586C525.008 691.586 527.746 677.764 531.361 660.86C534.976 643.955 538.139 630.266 538.378 630.319C538.617 630.372 535.906 644.114 532.264 661.046C528.623 677.977 525.513 691.586 525.274 691.586Z" fill="#E0E0E0"/>
<path d="M566.473 756.255C566.701 755.564 567.014 754.903 567.403 754.288L570.221 748.972C572.586 744.56 575.856 738.34 579.178 731.536C582.501 724.731 585.371 718.246 587.365 713.754L589.757 708.305C589.987 707.605 590.318 706.942 590.741 706.338C590.593 707.056 590.379 707.759 590.103 708.438C589.624 709.767 588.907 711.654 587.976 713.993C586.116 718.671 583.378 725.05 580.002 731.961C576.627 738.872 573.277 744.932 570.779 749.291C569.503 751.444 568.44 753.198 567.696 754.368C567.349 755.034 566.94 755.666 566.473 756.255Z" fill="#E0E0E0"/>
<path d="M515.014 757.212C515.663 757.033 516.335 756.952 517.008 756.973L522.51 756.654C527.135 756.415 533.54 756.175 540.611 755.936C547.681 755.697 554.087 755.564 558.738 755.511H564.24C564.912 755.452 565.588 755.452 566.26 755.511C565.602 755.691 564.923 755.78 564.24 755.777L558.765 756.096C554.113 756.308 547.707 756.574 540.637 756.787C533.567 756.999 527.161 757.159 522.51 757.212H517.034C516.363 757.291 515.685 757.291 515.014 757.212Z" fill="#E0E0E0"/>
<path d="M544.119 819.17C544.992 818.975 545.883 818.877 546.777 818.878L553.821 818.452C559.748 818.133 567.961 817.735 577.025 817.363C586.089 816.99 594.302 816.725 600.23 816.565L607.273 816.406C608.158 816.335 609.047 816.335 609.931 816.406C609.055 816.576 608.166 816.673 607.273 816.698L600.23 817.123C594.302 817.442 586.089 817.841 577.025 818.213C567.961 818.585 559.748 818.851 553.821 819.011L546.777 819.17C545.893 819.243 545.004 819.243 544.119 819.17Z" fill="#E0E0E0"/>
<path d="M608.177 815.98C608.477 815.109 608.851 814.264 609.293 813.455L612.642 806.677C615.46 800.963 619.287 793.068 623.274 784.217C627.261 775.366 630.717 767.286 633.162 761.385L636.059 754.421C636.377 753.561 636.76 752.726 637.202 751.923C637.018 752.834 636.742 753.725 636.378 754.581C635.794 756.282 634.916 758.7 633.72 761.651C631.434 767.605 628.085 775.765 624.072 784.616C620.058 793.467 616.098 801.361 613.147 806.996C611.659 809.814 610.489 812.1 609.533 813.641C609.14 814.454 608.687 815.236 608.177 815.98Z" fill="#E0E0E0"/>
<path d="M855.344 423.713C823.714 388.228 826.744 337.009 838.732 293.178C840.725 285.842 841.762 277.868 846.706 272.233C851.65 266.598 861.006 264.1 866.88 268.778C871.744 272.659 872.621 279.596 874.429 285.603C876.832 293.591 881.438 300.74 887.719 306.229C891.839 309.791 897.288 312.635 902.551 311.2C909.754 309.18 912.571 300.568 914.272 293.205C917.409 279.507 920.563 265.81 923.735 252.112C925.049 244.679 927.534 237.502 931.097 230.848C935.031 224.416 941.729 219.153 949.066 218.861C956.402 218.568 964.19 224.629 963.95 232.151C963.511 235.256 962.862 238.329 962.01 241.347C961.611 242.855 961.662 244.447 962.158 245.926C962.654 247.404 963.573 248.705 964.801 249.667C967.459 251.235 970.941 249.853 973.652 248.205C982.982 242.597 990.397 234.277 997.441 225.904C1004.48 217.532 1011.45 208.946 1020.25 202.487C1029.04 196.028 1040.05 191.855 1050.71 193.769C1061.37 195.683 1071.01 204.826 1071.23 215.751C1071.44 226.675 1062.93 235.819 1054.38 242.623C1041.73 252.726 1027.69 260.953 1012.7 267.05C1009.86 267.84 1007.36 269.517 1005.55 271.835C1002.89 276.353 1006.27 282.307 1010.7 285.125C1015.75 288.235 1021.81 289.085 1027.4 291.105C1032.98 293.125 1038.56 297.139 1039.44 303.04C1040.66 311.253 1032.53 317.632 1025.14 321.327C1010.34 328.681 994.391 333.446 977.985 335.414C972.11 336.105 966.024 336.504 960.761 339.242C955.498 341.979 951.325 347.986 952.787 353.781C954.249 359.575 960.548 362.845 966.449 363.11C972.35 363.376 978.144 361.542 984.018 360.798C994.996 359.363 1007.94 363.137 1012.25 373.397C1013.53 376.884 1013.98 380.62 1013.56 384.311C1013.14 388.002 1011.88 391.545 1009.85 394.661C1005.81 400.808 1000.56 406.078 994.438 410.157C973.906 425.564 949.656 435.249 924.16 438.225C898.856 440.883 876.635 437.853 855.398 423.846" fill="#F5F5F5"/>
<path d="M861.777 427.966C867.518 410.848 861.511 419.433 873.339 398.728C886.381 376.377 900.696 354.794 916.213 334.085C920.288 328.556 924.32 323.107 928.307 317.738C932.294 312.422 936.281 307.106 940.427 302.083C948.494 292.583 957.074 283.533 966.13 274.971C974.715 266.731 983.168 259.236 991.142 252.272C999.116 245.308 1006.66 238.982 1013.79 233.533C1025 224.841 1036.89 217.046 1049.33 210.222C1053.71 207.803 1057.3 206.049 1059.56 204.906L1062.22 203.604L1063.15 203.205C1062.87 203.411 1062.58 203.589 1062.27 203.737L1059.61 205.172C1057.27 206.421 1053.84 208.255 1049.51 210.727C1037.22 217.727 1025.47 225.644 1014.37 234.41C1007.3 239.912 999.807 246.265 991.886 253.229C983.965 260.193 975.566 267.741 967.007 275.981C958.017 284.54 949.491 293.572 941.464 303.04C937.317 307.983 933.49 313.273 929.423 318.642L917.329 334.989C901.865 355.628 887.56 377.111 874.482 399.339C862.627 419.992 868.581 411.273 862.734 428.285" fill="#E0E0E0"/>
<path d="M940.932 302.136C940.823 301.04 940.823 299.936 940.932 298.84C940.932 296.714 941.277 293.524 941.623 289.882C942.314 282.307 943.643 271.914 945.132 260.458C946.62 249.002 947.79 238.61 948.348 231.061C948.64 227.287 948.853 224.256 948.986 222.13C948.975 221.031 949.091 219.934 949.331 218.861C949.505 219.95 949.568 221.054 949.517 222.157C949.517 224.256 949.517 227.473 949.331 231.114C949.012 238.716 948.002 249.162 946.487 260.644C944.972 272.127 943.643 282.174 942.606 289.882C942.155 293.418 941.782 296.395 941.49 298.787C941.429 299.92 941.241 301.044 940.932 302.136Z" fill="#E0E0E0"/>
<path d="M1039.28 306.84C1037.98 306.832 1036.69 306.689 1035.42 306.415C1032.95 306.043 1029.36 305.511 1024.92 304.98C1016.07 303.864 1003.66 302.774 990.158 302.136C976.656 301.498 964.19 301.498 955.232 301.737C950.767 301.737 947.258 302.003 944.6 302.109C943.3 302.218 941.993 302.218 940.693 302.109C941.965 301.794 943.265 301.598 944.574 301.524C947.072 301.259 950.687 300.94 955.206 300.727C964.163 300.222 976.47 300.089 990.238 300.727C1001.9 301.232 1013.53 302.323 1025.08 303.996C1029.5 304.661 1033.06 305.352 1035.53 305.857C1036.81 306.064 1038.06 306.393 1039.28 306.84Z" fill="#E0E0E0"/>
<path d="M874.907 397.239C874.713 396.828 874.587 396.388 874.535 395.937C874.322 394.9 874.057 393.651 873.711 392.136C873.047 388.84 872.17 384.162 871.186 378.101C869.193 366.22 866.96 349.714 864.727 331.454C862.494 313.193 860.421 296.687 858.693 284.779C857.843 278.985 857.125 274.147 856.594 270.692C856.381 269.15 856.195 267.874 856.035 266.838C855.994 266.387 855.994 265.933 856.035 265.482C856.227 265.896 856.361 266.334 856.434 266.784L857.232 270.585C857.923 273.881 858.773 278.559 859.757 284.62C861.75 296.501 863.983 313.007 866.216 331.268C868.448 349.528 870.522 366.034 872.249 377.942C873.126 383.736 873.818 388.574 874.349 392.056C874.588 393.571 874.748 394.847 874.907 395.883C874.965 396.334 874.965 396.789 874.907 397.239Z" fill="#E0E0E0"/>
<path d="M1009.85 386.527C1009.42 386.668 1008.96 386.739 1008.5 386.74L1004.56 387.112L990.105 388.282C977.905 389.265 961.053 390.94 942.447 392.588C923.841 394.236 906.936 395.751 894.603 396.495C888.49 396.867 883.546 397.106 880.117 397.212H876.183C875.725 397.281 875.259 397.281 874.801 397.212C875.242 397.085 875.697 397.013 876.157 397L880.09 396.628L894.55 395.458C906.75 394.475 923.602 392.8 942.208 391.152C960.814 389.504 977.692 387.989 990.052 387.272C996.192 386.899 1001.14 386.634 1004.56 386.527H1008.5C1008.95 386.472 1009.4 386.472 1009.85 386.527Z" fill="#E0E0E0"/>
<path d="M1114.53 657.032C1114.43 657.463 1114.29 657.883 1114.1 658.281L1112.64 661.816C1111.28 665.006 1109.37 669.498 1106.98 675.106L1086.48 722.499L1086.35 722.764H1086.06L1021.68 733.396L1000.1 736.931L999.116 737.091L999.355 736.134C1004.67 715.428 1009.43 696.264 1013.55 680.183L1013.84 680.795L976.018 663.89L965.572 659.132L962.914 657.856C962.595 657.721 962.292 657.552 962.01 657.351L962.967 657.696L965.758 658.839L976.39 663.331L1014.4 679.811L1014.82 679.997V680.422C1010.78 696.636 1006.03 715.721 1000.87 736.453L1000.13 735.656L1021.71 732.094L1086.11 721.621L1085.66 721.967L1106.58 674.787C1109.1 669.152 1111.12 664.687 1112.56 661.497L1114.15 658.015C1114.26 657.68 1114.38 657.352 1114.53 657.032Z" fill="#E0E0E0"/>
<path d="M1007.65 729.463L1005.87 734.087L1008.68 738.181L1003.74 737.942L1000.74 741.875L999.435 737.091L994.757 735.443L998.903 732.732L999.036 727.788L1002.89 730.898L1007.65 729.463Z" fill="#E0E0E0"/>
<path d="M963.445 654.374L962.568 656.686L963.95 658.706L961.505 658.573L960.016 660.54L959.352 658.175L957.039 657.351L959.086 655.995L959.166 653.523L961.08 655.065L963.445 654.374Z" fill="#E0E0E0"/>
<path d="M1088.29 719.654L1087.41 721.967L1088.8 723.987L1086.35 723.881L1084.86 725.848L1084.2 723.455L1081.89 722.658L1083.93 721.302L1083.99 718.831L1085.93 720.372L1088.29 719.654Z" fill="#E0E0E0"/>
<path d="M1016.23 678.216L1015.36 680.502L1016.76 682.549L1014.29 682.416L1012.8 684.383L1012.17 681.991L1009.83 681.193L1011.9 679.838L1011.95 677.366L1013.87 678.907L1016.23 678.216Z" fill="#E0E0E0"/>
<path d="M1117.53 654.72L1116.65 657.032L1118.06 659.052L1115.59 658.946L1114.1 660.913L1113.46 658.52L1111.12 657.696L1113.2 656.367L1113.25 653.896L1115.16 655.437L1117.53 654.72Z" fill="#E0E0E0"/>
<path d="M311.89 848.169H451.063C451.063 848.169 438.756 825.762 402.926 829.031C368.718 832.141 366.99 818.001 349.58 816.273C332.17 814.545 317.711 827.862 311.89 848.169Z" fill="#E0E0E0"/>
<path d="M339.533 300.302H478.679C478.679 300.302 466.373 277.921 430.543 281.164C396.361 284.301 394.607 270.16 377.223 268.432C359.84 266.705 345.327 280.021 339.533 300.302Z" fill="#F5F5F5"/>
<path d="M1046.24 397.08H1160.54C1160.54 397.08 1150.44 378.686 1121.01 381.344C1092.89 384.002 1091.45 372.307 1077.18 370.872C1062.91 369.436 1051 380.414 1046.24 397.08Z" fill="#F5F5F5"/>
<path d="M817.946 622.717C823.634 579.897 793.519 544.545 755.882 523.308C718.245 502.071 674.574 494.894 633.003 483.146C593.797 472.009 554.804 455.742 525.779 427.142C496.754 398.542 479.317 355.562 489.737 316.17C492.395 306.282 497.046 296.341 505.552 290.627C514.057 284.912 527.002 285.072 533.354 293.099C546.857 310.216 520.543 340.943 537.022 355.136C540.797 358.432 546.006 359.628 549.914 362.738C560.306 371.058 556.957 387.192 558.419 400.429C561.316 426.61 585.876 444.791 609.984 455.396C642.279 469.59 677.258 476.261 711.493 484.634C745.728 493.007 780.309 503.665 808.829 524.504C837.35 545.343 862.149 577.664 861.989 612.989C861.989 622.85 860.687 634.971 854.494 642.626C848.301 650.281 840.433 651.902 831.502 647.702C822.571 643.503 816.351 637.07 817.999 622.77" fill="#00AA13"/>
<g opacity="0.8">
<path d="M817.946 622.717C823.634 579.897 793.519 544.545 755.882 523.308C718.245 502.071 674.574 494.894 633.003 483.146C593.797 472.009 554.804 455.742 525.779 427.142C496.754 398.542 479.317 355.562 489.737 316.17C492.395 306.282 497.046 296.341 505.552 290.627C514.057 284.912 527.002 285.072 533.354 293.099C546.857 310.216 520.543 340.943 537.022 355.136C540.797 358.432 546.006 359.628 549.914 362.738C560.306 371.058 556.957 387.192 558.419 400.429C561.316 426.61 585.876 444.791 609.984 455.396C642.279 469.59 677.258 476.261 711.493 484.634C745.728 493.007 780.309 503.665 808.829 524.504C837.35 545.343 862.149 577.664 861.989 612.989C861.989 622.85 860.687 634.971 854.494 642.626C848.301 650.281 840.433 651.902 831.502 647.702C822.571 643.503 816.351 637.07 817.999 622.77" fill="white"/>
</g>
<path d="M635.873 282.254C634.518 266.306 646.346 252.564 659.795 245.175C673.245 237.786 688.661 234.756 702.509 228.19C736.93 211.87 758.806 173.462 760.427 134.097C762.049 94.7321 744.958 55.3406 718.271 26.4215C707.4 14.6732 694.057 2.34004 693.897 -13.6877C693.738 -30.4331 709.845 -43.6168 726.166 -43.4041C742.486 -43.1915 757.317 -32.3203 767.019 -18.6847C776.721 -5.0492 782.063 11.138 787.3 27.086C783.578 20.3879 791.207 12.1215 798.596 12.8391C805.985 13.5568 811.886 19.6968 816.325 25.8102C835.989 52.5092 845.421 85.3779 842.905 118.441C840.242 150.888 825.547 181.168 801.706 203.338C775.471 227.26 740.785 238.45 707.134 249.082L636.937 271.223" fill="#00AA13"/>
<g opacity="0.8">
<path d="M635.873 282.254C634.518 266.306 646.346 252.564 659.795 245.175C673.245 237.786 688.661 234.756 702.509 228.19C736.93 211.87 758.806 173.462 760.427 134.097C762.049 94.7321 744.958 55.3406 718.271 26.4215C707.4 14.6732 694.057 2.34004 693.897 -13.6877C693.738 -30.4331 709.845 -43.6168 726.166 -43.4041C742.486 -43.1915 757.317 -32.3203 767.019 -18.6847C776.721 -5.0492 782.063 11.138 787.3 27.086C783.578 20.3879 791.207 12.1215 798.596 12.8391C805.985 13.5568 811.886 19.6968 816.325 25.8102C835.989 52.5092 845.421 85.3779 842.905 118.441C840.242 150.888 825.547 181.168 801.706 203.338C775.471 227.26 740.785 238.45 707.134 249.082L636.937 271.223" fill="white"/>
</g>
<path d="M702.908 972.909C694.296 955.073 701.818 932.826 715.534 918.526C729.249 904.226 747.961 896.066 766.036 888.092C806.065 870.443 848.434 849.445 868.767 810.744C875.625 797.693 879.532 783.34 883.386 769.093C890.855 741.556 897.872 710.272 882.855 686.004C878.522 679.014 872.037 672.714 863.956 671.385C854.733 669.737 845.35 674.814 839.609 682.23C834.286 689.979 831.088 698.987 830.333 708.358C828.1 725.98 829.961 743.922 828.1 761.518C826.239 779.114 819.834 797.906 805.374 807.953C787.645 820.313 762.368 817.549 745.17 830.599C731.269 841.231 725.98 859.412 715.135 873.127C705.991 884.583 693.206 892.398 681.511 901.222C669.816 910.047 658.493 920.785 654.506 934.899C652.414 942.277 652.494 950.101 654.737 957.435C656.979 964.768 661.289 971.299 667.149 976.245C673.01 981.19 680.172 984.341 687.778 985.32C695.384 986.298 703.11 985.062 710.032 981.76" fill="#00AA13"/>
<g opacity="0.8">
<path d="M702.908 972.909C694.296 955.073 701.818 932.826 715.534 918.526C729.249 904.226 747.961 896.066 766.036 888.092C806.065 870.443 848.434 849.445 868.767 810.744C875.625 797.693 879.532 783.34 883.386 769.093C890.855 741.556 897.872 710.272 882.855 686.004C878.522 679.014 872.037 672.714 863.956 671.385C854.733 669.737 845.35 674.814 839.609 682.23C834.286 689.979 831.088 698.987 830.333 708.358C828.1 725.98 829.961 743.922 828.1 761.518C826.239 779.114 819.834 797.906 805.374 807.953C787.645 820.313 762.368 817.549 745.17 830.599C731.269 841.231 725.98 859.412 715.135 873.127C705.991 884.583 693.206 892.398 681.511 901.222C669.816 910.047 658.493 920.785 654.506 934.899C652.414 942.277 652.494 950.101 654.737 957.435C656.979 964.768 661.289 971.299 667.149 976.245C673.01 981.19 680.172 984.341 687.778 985.32C695.384 986.298 703.11 985.062 710.032 981.76" fill="white"/>
</g>
<path d="M436.789 71.8999C429.712 66.6454 423.99 59.7784 420.099 51.8692C416.208 43.9601 414.259 35.2367 414.415 26.4235C414.571 17.6103 416.827 8.96138 420.996 1.19481C425.164 -6.57178 431.125 -13.232 438.384 -18.2329C446.571 -23.8413 456.246 -27.2966 463.529 -34.1809C469.988 -40.188 474.161 -48.5075 481.417 -53.5577C485.946 -56.7691 491.382 -58.4497 496.932 -58.3543C502.483 -58.2589 507.858 -56.3926 512.274 -53.0276C516.69 -49.6625 519.914 -44.9747 521.478 -39.6479C523.042 -34.3211 522.864 -28.634 520.968 -23.416C517.646 -14.0864 509.273 -7.25533 505.764 1.99451C501.99 11.9886 504.435 23.2585 503.106 33.731C502.236 40.2512 499.91 46.4919 496.3 51.9905C492.69 57.4892 487.888 62.1048 482.251 65.4951C476.614 68.8854 470.287 70.9635 463.737 71.5753C457.188 72.1871 450.585 71.3169 444.418 69.0293" fill="#00AA13"/>
<g opacity="0.8">
<path d="M436.789 71.8999C429.712 66.6454 423.99 59.7784 420.099 51.8692C416.208 43.9601 414.259 35.2367 414.415 26.4235C414.571 17.6103 416.827 8.96138 420.996 1.19481C425.164 -6.57178 431.125 -13.232 438.384 -18.2329C446.571 -23.8413 456.246 -27.2966 463.529 -34.1809C469.988 -40.188 474.161 -48.5075 481.417 -53.5577C485.946 -56.7691 491.382 -58.4497 496.932 -58.3543C502.483 -58.2589 507.858 -56.3926 512.274 -53.0276C516.69 -49.6625 519.914 -44.9747 521.478 -39.6479C523.042 -34.3211 522.864 -28.634 520.968 -23.416C517.646 -14.0864 509.273 -7.25533 505.764 1.99451C501.99 11.9886 504.435 23.2585 503.106 33.731C502.236 40.2512 499.91 46.4919 496.3 51.9905C492.69 57.4892 487.888 62.1048 482.251 65.4951C476.614 68.8854 470.287 70.9635 463.737 71.5753C457.188 72.1871 450.585 71.3169 444.418 69.0293" fill="white"/>
</g>
<path d="M437.799 14.9124H470.466V82.2395C470.466 84.1279 470.094 85.9978 469.371 87.7425C468.649 89.4871 467.59 91.0723 466.254 92.4076C464.919 93.7429 463.334 94.8021 461.589 95.5247C459.845 96.2474 457.975 96.6193 456.086 96.6193H452.206C448.392 96.6193 444.734 95.1043 442.037 92.4076C439.341 89.7108 437.826 86.0533 437.826 82.2395V14.9124H437.799Z" fill="#00AA13"/>
<path d="M437.799 14.9124L454.119 -15.0433L470.466 14.9124H437.799Z" fill="#FFBE9D"/>
<path d="M447.66 -3.1886C447.66 -3.1886 452.631 4.28039 460.605 -3.1886L454.146 -15.0433L447.66 -3.1886Z" fill="#00AA13"/>
<path d="M470.918 78.9701C465.407 79.6361 459.852 79.8583 454.305 79.6346C448.768 79.8586 443.221 79.6364 437.719 78.9701C443.221 78.3039 448.768 78.0817 454.305 78.3056C459.852 78.082 465.407 78.3042 470.918 78.9701Z" fill="#263238"/>
<path d="M470.466 73.9466C465.071 74.6123 459.63 74.8346 454.199 74.6111C448.768 74.8346 443.327 74.6123 437.932 73.9466C443.33 73.3143 448.768 73.101 454.199 73.3087C459.63 73.101 465.068 73.3143 470.466 73.9466Z" fill="#263238"/>
<path d="M447.395 15.3908C447.74 15.3908 448.059 28.415 448.059 44.4959C448.059 60.5768 447.74 73.7339 447.395 73.7339C447.049 73.7339 446.73 60.6831 446.73 44.4959C446.73 28.3087 447.022 15.3908 447.395 15.3908Z" fill="#FAFAFA"/>
<path d="M460.605 15.3908C460.977 15.3908 461.269 28.415 461.269 44.4959C461.269 60.5768 460.977 73.7339 460.605 73.7339C460.233 73.7339 459.94 60.6831 459.94 44.4959C459.94 28.3087 460.233 15.3908 460.605 15.3908Z" fill="#FAFAFA"/>
<path d="M721.62 935.378L870.017 941.73L873.605 950.369L776.322 1108.25L600.735 1103.12L721.62 935.378Z" fill="#263238"/>
<path d="M594.09 1087.73L770.714 1097.83L862.999 954.648L798.197 959.911L634.225 1017.64L594.09 1087.73Z" fill="#E0E0E0"/>
<path d="M569.264 1077.13L731.402 1079.79C724.677 1059.03 740.545 1029.82 762.368 1019.98C776.827 1013.47 804.018 1005.02 818.053 997.814C844.633 984.125 868.82 958.237 866.721 935.989L800.058 933.783L715.002 930.487C707.879 951.592 692.675 965.387 669.55 973.706C648.871 981.149 625.321 981.122 605.12 989.654C572.639 1003.26 557.037 1047.36 569.131 1077.21" fill="#EBEBEB"/>
<path d="M569.264 1077.13C569.264 1077.13 569.104 1076.78 568.865 1076.07L567.749 1072.96C567.16 1071.22 566.698 1069.44 566.367 1067.64C565.824 1065.21 565.451 1062.74 565.25 1060.25C564.733 1053.35 565.163 1046.41 566.526 1039.62C568.414 1030.49 571.944 1021.77 576.946 1013.9C578.355 1011.62 579.908 1009.43 581.597 1007.36C582.474 1006.32 583.325 1005.18 584.255 1004.17L587.259 1001.11C588.263 1000.06 589.347 999.093 590.501 998.213C591.644 997.283 592.761 996.299 593.983 995.422C596.514 993.64 599.181 992.059 601.957 990.691C613.201 985.029 626.624 982.717 640.605 980.059C647.622 978.783 654.851 977.401 662.081 975.46C669.521 973.421 676.7 970.531 683.478 966.848C686.979 964.954 690.313 962.766 693.446 960.31C696.673 957.827 699.639 955.022 702.297 951.937C707.801 945.574 711.993 938.185 714.63 930.195L714.789 929.743H715.241L786.077 932.401C810.663 933.358 836.1 934.022 862.149 934.899L866.88 935.059H867.465V935.644C867.821 940.735 867.096 945.843 865.339 950.635C864.5 953.001 863.505 955.31 862.362 957.545C861.188 959.743 859.892 961.872 858.481 963.925C852.876 971.972 846.104 979.138 838.386 985.189C830.925 991.13 822.778 996.154 814.119 1000.15C805.56 1004.01 796.895 1007.14 788.416 1010.28C779.937 1013.42 771.538 1016.39 763.59 1019.85C759.677 1021.58 756.005 1023.82 752.666 1026.49C750.938 1027.72 749.503 1029.28 747.935 1030.64C746.366 1032 745.011 1033.64 743.762 1035.32C738.584 1041.57 734.724 1048.8 732.412 1056.58C730.067 1063.95 729.928 1071.84 732.013 1079.28L732.252 1080H731.508L613.52 1077.93L580.8 1077.26L572.241 1077.02H569.29C569.29 1077.02 570.3 1077.02 572.241 1077.02H580.826L613.546 1077.39L731.508 1079.04L731.003 1079.73C728.82 1072.09 728.94 1063.97 731.349 1056.4C733.662 1048.44 737.579 1041.04 742.858 1034.65C744.107 1032.95 745.675 1031.49 747.084 1029.9C748.493 1028.3 750.167 1026.89 751.922 1025.62C755.325 1022.87 759.079 1020.59 763.085 1018.84C771.059 1015.33 779.512 1012.33 787.991 1009.19C796.47 1006.05 805.108 1002.89 813.587 999.063C822.131 995.104 830.164 990.124 837.509 984.232C845.125 978.276 851.808 971.217 857.338 963.287C858.726 961.298 860.013 959.24 861.192 957.12C862.304 954.944 863.272 952.698 864.089 950.395C865.783 945.783 866.489 940.866 866.162 935.963L866.8 936.547L862.043 936.414C835.994 935.537 810.557 934.846 785.997 933.756L715.135 931.098L715.746 930.673C713.034 938.806 708.753 946.328 703.147 952.814C700.434 955.951 697.406 958.801 694.11 961.32C690.926 963.819 687.528 966.034 683.957 967.938C677.108 971.662 669.846 974.57 662.32 976.603C655.011 978.597 647.755 979.926 640.738 981.175C626.756 983.674 613.387 986.013 602.303 991.541C599.59 992.877 596.986 994.423 594.515 996.166C593.292 997.017 592.202 998 591.059 998.824C589.914 999.696 588.839 1000.66 587.843 1001.69L584.76 1004.75C583.803 1005.76 582.979 1006.88 582.102 1007.91C580.408 1009.95 578.854 1012.1 577.451 1014.35C572.448 1022.13 568.908 1030.76 567.005 1039.81C565.577 1046.53 565.085 1053.42 565.543 1060.28C565.701 1062.75 566.039 1065.21 566.553 1067.64C566.849 1069.44 567.276 1071.22 567.829 1072.96C568.28 1074.34 568.599 1075.37 568.839 1076.12C569.078 1076.86 569.264 1077.13 569.264 1077.13Z" fill="#263238"/>
<path d="M760.693 933.118C760.693 933.118 760.906 932.082 761.065 930.221C761.26 927.604 760.823 924.978 759.789 922.566C758.342 918.969 755.615 916.034 752.134 914.326C750.001 913.333 747.689 912.779 745.337 912.697C742.985 912.615 740.64 913.008 738.443 913.851C736.245 914.694 734.24 915.971 732.547 917.605C730.853 919.239 729.505 921.198 728.584 923.364C726.956 926.891 726.41 930.822 727.016 934.66C727.402 937.242 728.306 939.72 729.674 941.943C730.684 943.538 731.428 944.282 731.349 944.362C730.525 943.795 729.821 943.073 729.275 942.235C727.629 940.048 726.511 937.51 726.006 934.82C725.216 930.788 725.69 926.611 727.362 922.859C728.333 920.53 729.768 918.424 731.579 916.667C733.39 914.91 735.539 913.541 737.896 912.641C740.253 911.741 742.768 911.329 745.289 911.432C747.81 911.534 750.283 912.148 752.559 913.237C756.26 915.113 759.11 918.324 760.533 922.221C761.527 924.754 761.839 927.503 761.437 930.195C761.33 930.928 761.152 931.649 760.906 932.348C760.852 932.906 760.746 933.118 760.693 933.118Z" fill="#263238"/>
<path d="M786.13 933.119C785.997 933.119 786.343 932.082 786.502 930.221C786.684 927.605 786.247 924.982 785.226 922.566C783.766 918.969 781.031 916.035 777.545 914.326C775.411 913.337 773.099 912.785 770.748 912.706C768.397 912.626 766.054 913.019 763.857 913.862C761.661 914.705 759.656 915.98 757.962 917.612C756.268 919.244 754.919 921.2 753.995 923.364C752.374 926.894 751.837 930.825 752.453 934.66C752.827 937.245 753.732 939.725 755.111 941.943C756.121 943.538 756.865 944.282 756.786 944.362C755.943 943.81 755.227 943.085 754.686 942.235C753.05 940.042 751.933 937.507 751.417 934.82C750.651 930.785 751.133 926.612 752.799 922.859C753.77 920.534 755.204 918.43 757.013 916.676C758.822 914.922 760.969 913.553 763.322 912.653C765.676 911.754 768.188 911.342 770.706 911.442C773.224 911.542 775.695 912.153 777.97 913.237C781.67 915.113 784.52 918.324 785.944 922.221C786.929 924.756 787.249 927.501 786.874 930.195C786.774 930.932 786.586 931.655 786.316 932.348C786.309 932.615 786.246 932.878 786.13 933.119Z" fill="#263238"/>
<path d="M805.374 934.447C805.374 934.447 805.533 933.384 805.587 931.524C805.628 928.899 805.045 926.303 803.886 923.948C802.223 920.448 799.326 917.684 795.752 916.187C793.571 915.324 791.24 914.903 788.894 914.949C786.549 914.994 784.236 915.506 782.09 916.453C777.771 918.432 774.415 922.046 772.76 926.5C771.337 930.118 771.014 934.075 771.83 937.876C772.39 940.445 773.476 942.871 775.02 945C776.109 946.515 776.907 947.232 776.827 947.312C775.96 946.81 775.208 946.131 774.621 945.319C772.854 943.222 771.59 940.749 770.926 938.089C769.929 934.107 770.17 929.916 771.617 926.075C772.456 923.695 773.769 921.511 775.478 919.655C777.186 917.799 779.255 916.31 781.557 915.278C783.859 914.246 786.347 913.693 788.87 913.653C791.392 913.613 793.897 914.086 796.23 915.044C800.032 916.703 803.063 919.743 804.71 923.55C805.865 926.039 806.342 928.79 806.092 931.524C806.036 932.264 805.893 932.996 805.666 933.703C805.587 934.208 805.374 934.447 805.374 934.447Z" fill="#263238"/>
<path d="M826.133 935.617C826.133 935.617 826.133 934.554 826.133 932.693C826.046 930.071 825.325 927.508 824.033 925.224C822.195 921.808 819.155 919.194 815.501 917.888C813.274 917.135 810.918 916.838 808.574 917.014C806.23 917.189 803.945 917.834 801.854 918.91C799.764 919.986 797.912 921.471 796.407 923.278C794.902 925.084 793.775 927.174 793.094 929.424C791.857 933.109 791.746 937.078 792.775 940.827C793.475 943.366 794.687 945.736 796.337 947.791C797.506 949.226 798.33 949.89 798.251 949.997C797.36 949.53 796.574 948.888 795.938 948.11C794.069 946.108 792.679 943.709 791.871 941.092C790.646 937.172 790.646 932.972 791.871 929.052C792.589 926.636 793.785 924.389 795.387 922.443C796.99 920.498 798.967 918.895 801.201 917.729C803.451 916.576 805.913 915.895 808.436 915.726C810.958 915.557 813.489 915.904 815.873 916.745C819.745 918.189 822.932 921.035 824.804 924.719C826.092 927.173 826.706 929.924 826.585 932.693C826.56 933.428 826.462 934.158 826.293 934.873C826.266 935.378 826.186 935.617 826.133 935.617Z" fill="#263238"/>
<path d="M846.865 935.139C846.865 935.139 846.865 934.075 846.865 932.215C846.704 929.593 845.91 927.048 844.553 924.799C842.618 921.442 839.514 918.916 835.835 917.702C833.586 917.006 831.219 916.771 828.877 917.011C826.535 917.25 824.266 917.959 822.204 919.096C820.142 920.232 818.331 921.772 816.877 923.624C815.424 925.477 814.36 927.603 813.747 929.876C812.791 932.99 812.633 936.294 813.288 939.485C813.943 942.676 815.389 945.651 817.494 948.136C818.717 949.545 819.568 950.183 819.488 950.263C818.578 949.851 817.77 949.242 817.122 948.482C815.208 946.523 813.755 944.162 812.87 941.571C811.545 937.681 811.443 933.479 812.577 929.53C813.23 927.095 814.364 924.815 815.911 922.825C817.459 920.835 819.389 919.174 821.588 917.941C823.803 916.731 826.242 915.985 828.755 915.747C831.268 915.509 833.804 915.786 836.207 916.559C840.129 917.905 843.402 920.675 845.377 924.321C846.735 926.755 847.423 929.507 847.37 932.295C847.369 933.036 847.289 933.776 847.131 934.501C846.998 934.873 846.918 935.139 846.865 935.139Z" fill="#263238"/>
<path d="M864.355 937.451C864.355 937.451 864.355 936.388 864.355 934.527C864.298 931.902 863.604 929.33 862.335 927.032C860.531 923.609 857.533 920.97 853.909 919.616C851.691 918.833 849.339 918.505 846.992 918.652C844.644 918.798 842.351 919.415 840.247 920.467C838.144 921.519 836.274 922.983 834.748 924.773C833.223 926.563 832.074 928.642 831.369 930.886C830.298 933.959 830.012 937.251 830.536 940.464C831.061 943.676 832.38 946.706 834.373 949.279C835.542 950.741 836.34 951.406 836.287 951.512C835.4 951.039 834.622 950.387 834.001 949.598C832.143 947.581 830.778 945.161 830.014 942.528C828.842 938.59 828.907 934.387 830.2 930.487C830.945 928.079 832.167 925.845 833.793 923.918C835.418 921.991 837.414 920.411 839.662 919.27C841.926 918.148 844.394 917.499 846.916 917.362C849.439 917.225 851.963 917.603 854.334 918.473C858.204 919.963 861.359 922.871 863.159 926.606C864.423 929.067 865.01 931.819 864.86 934.58C864.829 935.316 864.723 936.046 864.541 936.76C864.488 937.212 864.408 937.478 864.355 937.451Z" fill="#263238"/>
<path d="M940.932 392.96C933.59 392.739 926.241 393.077 918.95 393.97C896.827 396.817 876.509 407.655 861.822 424.442C847.135 441.229 839.093 462.808 839.21 485.113C839.132 499.788 841.036 514.406 844.872 528.571C857.657 573.916 861.591 613.866 860.129 633.349L902.923 656.341C902.923 656.341 922.725 627.874 941.862 615.594C961 603.314 1024.69 570.408 1049.91 536.784C1066.15 515.042 1069.29 470.334 1030.53 431.368C1006.7 407.548 974.619 393.798 940.932 392.96Z" fill="#00AA13"/>
<path d="M839.662 682.841L878.31 703.733L853.165 735.682L827.382 723.987L839.662 682.841Z" fill="#455A64"/>
<path d="M841.549 684.144C841.204 684.011 845.031 672.528 850.108 658.52C855.185 644.513 859.571 633.216 859.916 633.349C860.262 633.482 856.434 644.938 851.357 658.972C846.281 673.007 841.895 684.25 841.549 684.144Z" fill="#263238"/>
<path d="M875.891 702.218C875.572 702.032 881.632 691.187 889.393 678.004C897.155 664.82 903.72 654.374 904.066 654.374C904.411 654.374 898.324 665.405 890.536 678.588C882.748 691.772 876.183 702.351 875.891 702.218Z" fill="#263238"/>
<g opacity="0.4">
<path d="M953.69 394.182C951.963 394.182 930.699 419.168 921.289 436.019C889.633 492.714 888.197 547.868 879.426 612.192C878.177 621.388 873.605 641.19 873.685 640.738C878.363 644.406 894.098 651.716 894.098 651.716C894.098 651.716 908.956 633.801 914.857 624.79C938.46 588.721 964.11 560.573 984.337 522.484C1004.56 484.395 1024.02 450.718 1005.31 411.752C1005.31 411.752 972.828 393.093 953.69 394.182Z" fill="black"/>
</g>
<path d="M1049.91 542.472C1049.69 542.083 1049.5 541.674 1049.35 541.25C1049.01 540.452 1048.58 539.203 1047.86 537.661C1045.86 533.2 1043.35 528.982 1040.39 525.089C1035.85 519.079 1030.3 513.899 1023.99 509.779C1015.91 504.421 1006.69 501.009 997.069 499.811H996.75L996.59 499.599C991.424 492.503 985.652 485.869 979.34 479.77C972.43 473.102 964.463 467.623 955.764 463.556C947.022 459.601 937.465 457.779 927.881 458.24C919.149 458.582 910.695 461.403 903.507 466.374L903.109 466.639L902.763 466.321C895.456 459.91 886.37 455.877 876.715 454.758C869.215 453.905 861.62 454.871 854.574 457.576C850.01 459.322 845.729 461.731 841.868 464.726C840.539 465.789 839.529 466.639 838.891 467.224C838.575 467.542 838.228 467.827 837.855 468.075C838.137 467.73 838.439 467.402 838.758 467.091C839.37 466.453 840.327 465.55 841.629 464.433C845.438 461.267 849.727 458.728 854.334 456.911C861.472 454.049 869.2 452.972 876.848 453.775C886.736 454.84 896.059 458.913 903.561 465.443H902.816C910.179 460.307 918.858 457.384 927.828 457.018C937.604 456.517 947.359 458.339 956.295 462.334C965.132 466.467 973.217 472.046 980.217 478.84C986.581 484.998 992.381 491.714 997.547 498.908L997.149 498.668C1006.94 499.911 1016.3 503.444 1024.47 508.981C1030.83 513.22 1036.4 518.536 1040.93 524.69C1043.85 528.667 1046.28 532.987 1048.16 537.555C1048.82 539.123 1049.19 540.399 1049.48 541.223C1049.65 541.63 1049.8 542.047 1049.91 542.472Z" fill="#263238"/>
<path d="M970.329 598.955C969.672 595.664 968.42 592.52 966.635 589.678C964.544 586.427 961.734 583.698 958.422 581.704C954.187 579.083 949.215 577.908 944.254 578.355H943.723V577.824C942.685 571.461 940.037 565.468 936.032 560.416C932.026 555.364 926.796 551.42 920.838 548.958C915.556 546.892 909.881 546.03 904.225 546.433C899.029 546.81 893.968 548.268 889.367 550.712L888.968 550.925L888.649 550.579C884.67 546.409 879.465 543.616 873.791 542.605C869.385 541.749 864.843 541.895 860.501 543.03C856.649 544.104 853.039 545.909 849.869 548.346C849.869 548.346 850.028 548.107 850.427 547.762C850.826 547.416 851.411 546.858 852.235 546.247C854.661 544.529 857.355 543.226 860.209 542.392C864.657 541.11 869.342 540.874 873.897 541.701C879.834 542.681 885.291 545.564 889.447 549.915L888.729 549.782C893.454 547.271 898.65 545.769 903.986 545.369C909.836 544.959 915.704 545.867 921.156 548.027C927.716 550.677 933.398 555.116 937.556 560.839C941.297 565.865 943.743 571.735 944.68 577.93L944.068 577.451C949.257 577.046 954.436 578.343 958.82 581.146C962.192 583.24 965.031 586.088 967.113 589.466C968.446 591.627 969.398 594 969.931 596.483C970.065 597.132 970.163 597.789 970.223 598.45C970.272 598.615 970.308 598.784 970.329 598.955Z" fill="#263238"/>
<path d="M870.841 713.807C870.841 713.807 870.415 713.275 869.432 712.85C867.95 712.401 866.36 712.457 864.913 713.009C863.801 713.359 862.649 713.564 861.484 713.621C860.766 713.615 860.057 713.463 859.399 713.175C858.741 712.887 858.149 712.469 857.657 711.946C855.61 709.793 854.839 706.63 852.899 704.584C852.457 704.08 851.907 703.682 851.291 703.42C850.674 703.158 850.007 703.038 849.337 703.069C847.968 703.218 846.615 703.493 845.297 703.893C843.984 704.267 842.603 704.34 841.257 704.105C839.843 703.755 838.556 703.014 837.545 701.965C836.534 700.916 835.84 699.604 835.542 698.178C835.362 697.589 835.362 696.959 835.542 696.37C835.542 696.37 835.542 697.008 835.994 698.072C836.494 699.54 837.419 700.826 838.652 701.766C839.462 702.412 840.422 702.842 841.443 703.015C842.63 703.176 843.839 703.067 844.978 702.696C846.37 702.249 847.804 701.946 849.258 701.793C850.113 701.743 850.968 701.887 851.759 702.213C852.551 702.54 853.259 703.041 853.829 703.68C856.089 706.338 856.78 709.262 858.507 711.096C859.271 711.949 860.341 712.465 861.484 712.531C862.554 712.519 863.617 712.367 864.647 712.079C866.287 711.569 868.057 711.683 869.618 712.398C870.734 713.036 870.894 713.807 870.841 713.807Z" fill="#263238"/>
<path d="M875.279 707.534C868.804 704.841 862.51 701.733 856.434 698.231C850.14 695.115 844.042 691.618 838.174 687.758C844.65 690.468 850.953 693.575 857.046 697.061C863.329 700.181 869.419 703.678 875.279 707.534Z" fill="#263238"/>
<path d="M867.598 717.342C867.598 717.342 867.066 717.608 866.136 718.033C865.657 718.246 865.126 718.565 864.382 718.884C863.529 719.181 862.624 719.299 861.724 719.229C859.389 719.1 857.156 718.235 855.344 716.757C854.286 715.858 853.457 714.719 852.926 713.435C852.492 712.178 851.855 711.002 851.038 709.953C850.079 709.146 848.962 708.549 847.758 708.201C846.553 707.853 845.29 707.762 844.048 707.933C841.786 708.198 839.494 707.98 837.323 707.295C835.836 706.728 834.619 705.616 833.921 704.185C833.496 703.148 833.655 702.484 833.708 702.51C833.761 702.537 833.868 703.095 834.399 703.946C835.169 705.124 836.325 705.998 837.669 706.418C839.737 706.937 841.888 707.036 843.995 706.71C845.414 706.502 846.862 706.603 848.238 707.006C849.614 707.41 850.887 708.107 851.969 709.049C852.868 710.21 853.569 711.513 854.042 712.903C854.491 714.029 855.191 715.039 856.089 715.854C857.698 717.202 859.665 718.052 861.75 718.299C863.174 718.427 864.606 718.17 865.897 717.555C866.986 717.262 867.598 717.262 867.598 717.342Z" fill="#263238"/>
<path d="M575.776 469.111L642.625 459.197L610.729 414.011L593.611 415.021C587.955 415.347 582.5 417.24 577.857 420.488C573.215 423.736 569.568 428.212 567.324 433.414C564.896 439.057 564.22 445.298 565.383 451.329L575.776 469.111Z" fill="#00AA13"/>
<path opacity="0.4" d="M575.776 469.111L642.625 459.197L610.729 414.011L593.611 415.021C587.955 415.347 582.5 417.24 577.857 420.488C573.215 423.736 569.568 428.212 567.324 433.414C564.896 439.057 564.22 445.298 565.383 451.329L575.776 469.111Z" fill="black"/>
<path d="M862.893 543.163C863.584 545.077 864.328 547.336 865.099 550.047C865.735 552.383 865.978 554.809 865.817 557.224C865.712 560.22 865.202 563.189 864.302 566.049C863.212 568.707 865.764 571.152 867.917 569.876C870.07 568.6 873.233 561.69 873.233 552.812C873.233 543.934 882.11 554.566 885.486 558.394C888.862 562.221 899.866 573.571 901.859 573.464C904.783 573.305 905.155 570.142 901.7 566.394C898.244 562.646 888.649 550.712 890.749 549.011C892.849 547.31 909.754 567.059 909.754 567.059C909.754 567.059 912.677 571.87 915.07 570.009C919.588 566.633 900.052 546.991 898.138 545.183C896.836 543.908 899.042 541.994 900.397 543.429C901.753 544.864 916.824 563.497 921.449 560.095C924.984 557.437 905.501 543.801 904.544 538.219C903.587 532.638 918.259 550.101 921.529 547.496C922.778 546.512 923.549 545.609 913.555 536.864C908.77 532.558 890.536 519.799 890.536 519.799L835.675 362.738L793.307 387.006L862.893 543.163Z" fill="#FFBE9D"/>
<path d="M536.305 246.105L475.011 172.957C474.238 170.433 473.233 167.986 472.008 165.648C470.586 162.729 468.562 160.145 466.07 158.065C463.578 155.986 460.674 154.457 457.548 153.58C453.667 152.73 449.202 153.155 446.145 150.603C444.79 149.46 443.886 147.945 442.451 146.776C441.015 145.606 438.65 145.5 437.719 147.015C437.481 147.606 437.38 148.244 437.426 148.88C437.473 149.516 437.664 150.133 437.985 150.683C440.287 156.095 443.95 160.82 448.617 164.398C442.876 166.153 434.663 168.811 434.663 168.811C434.663 168.811 421.718 154.75 415.073 154.776C408.428 154.803 420.389 167.349 420.389 167.349C420.389 167.349 409.757 157.514 406.461 160.278C403.165 163.043 411.618 170.352 411.618 170.352C409.079 168.626 406.046 167.777 402.979 167.933C399.976 168.438 397.398 171.974 399.019 174.552C399.711 175.481 400.625 176.221 401.677 176.705L417.997 185.795C420.608 187.536 423.597 188.629 426.715 188.985C435.008 189.251 441.308 184.121 449.574 184.333C449.574 184.333 495.797 281.643 500.475 286.666C505.153 291.69 606.795 298.521 606.795 298.521L665.563 247.886L536.305 246.105Z" fill="#FFBE9D"/>
<path d="M720.451 776.19L783.047 803.435L749.556 881.5C742.273 877.859 744.665 830.998 744.665 830.998L703.838 815.183L720.451 776.19Z" fill="#00AA13"/>
<g opacity="0.6">
<path d="M751.603 805.455C752.153 804.797 752.926 804.366 753.775 804.243C754.623 804.121 755.487 804.316 756.201 804.79C756.87 805.32 757.312 806.086 757.435 806.931C757.559 807.776 757.355 808.636 756.865 809.335C756.285 810.026 755.468 810.476 754.575 810.599C753.681 810.722 752.773 810.508 752.028 810C751.377 809.38 750.994 808.53 750.959 807.632C750.924 806.734 751.241 805.858 751.842 805.189" fill="white"/>
</g>
<path opacity="0.6" d="M783.047 803.434L776.614 800.936L746.898 876.716C746.898 876.716 746.898 880.862 749.556 881.5L783.047 803.434Z" fill="white"/>
<path d="M743.682 832.141C744.08 832.274 745.064 830.44 747.111 829.111C749.157 827.782 751.151 827.436 751.151 827.038C751.151 826.639 748.705 826.24 746.287 827.915C743.868 829.589 743.31 832.061 743.682 832.141Z" fill="#263238"/>
<path d="M743.549 841.763C743.894 842.029 745.25 840.647 747.43 840.035C749.609 839.424 751.443 839.796 751.603 839.424C751.762 839.052 749.689 837.856 747.004 838.653C744.32 839.45 743.203 841.603 743.549 841.763Z" fill="#263238"/>
<path d="M751.363 850.641C751.603 850.322 749.901 848.966 747.403 849.046C744.904 849.126 743.31 850.561 743.549 850.853C743.788 851.146 745.383 850.534 747.456 850.508C749.529 850.481 751.151 851.066 751.363 850.641Z" fill="#263238"/>
<path d="M734.777 827.49C735.203 827.49 735.415 825.496 736.505 823.423C737.595 821.35 738.977 819.941 738.738 819.595C738.499 819.25 736.425 820.286 735.203 822.758C733.98 825.23 734.405 827.543 734.777 827.49Z" fill="#263238"/>
<path d="M726.325 821.642C726.485 821.642 727.362 820.313 727.973 817.735C728.338 816.221 728.508 814.667 728.478 813.11C728.466 812.22 728.395 811.332 728.265 810.452C728.207 809.91 728.064 809.38 727.84 808.883C727.68 808.518 727.401 808.218 727.049 808.03C726.697 807.842 726.293 807.777 725.9 807.847C725.551 807.915 725.224 808.067 724.946 808.289C724.668 808.511 724.448 808.797 724.305 809.123C724.09 809.623 723.947 810.151 723.88 810.691C723.454 813.175 723.664 815.726 724.491 818.107C725.368 820.632 726.538 821.855 726.671 821.748C726.804 821.642 726.059 820.233 725.448 817.814C725.119 816.394 724.967 814.939 724.996 813.482C725.016 812.59 725.105 811.702 725.262 810.824C725.395 809.92 725.687 809.202 726.166 809.149C726.644 809.096 726.378 809.149 726.564 809.415C726.706 809.793 726.804 810.185 726.857 810.585C727.008 811.464 727.106 812.351 727.149 813.243C727.229 814.707 727.167 816.176 726.963 817.628C726.66 818.95 726.447 820.291 726.325 821.642Z" fill="#263238"/>
<path d="M727.069 821.403C727.069 821.403 726.166 819.941 723.747 818.745C722.328 818.051 720.799 817.61 719.228 817.442C718.345 817.345 717.454 817.345 716.57 817.442C715.963 817.436 715.364 817.584 714.829 817.872C714.295 818.16 713.842 818.579 713.513 819.09C713.377 819.443 713.342 819.826 713.412 820.197C713.483 820.568 713.656 820.912 713.912 821.19C714.29 821.583 714.719 821.922 715.188 822.2C716.011 822.714 716.907 823.099 717.846 823.343C719.4 823.728 721.024 823.728 722.577 823.343C725.235 822.679 726.405 821.296 726.298 821.217C725.018 821.662 723.714 822.035 722.391 822.333C720.985 822.535 719.551 822.426 718.192 822.014C717.402 821.764 716.651 821.406 715.959 820.951C715.188 820.472 714.656 819.888 714.869 819.622C715.098 819.355 715.384 819.142 715.706 819C716.028 818.857 716.378 818.788 716.73 818.798C717.614 818.712 718.504 818.712 719.388 818.798C720.832 818.898 722.255 819.202 723.614 819.702C725.634 820.552 726.936 821.562 727.069 821.403Z" fill="#263238"/>
<path d="M672.235 883.414L698.124 937.663L706.231 986.624C706.368 987.457 706.675 988.252 707.134 988.961C707.592 989.669 708.192 990.276 708.896 990.742C709.599 991.209 710.391 991.525 711.222 991.672C712.053 991.818 712.906 991.792 713.726 991.594C714.682 991.373 715.571 990.924 716.316 990.285C717.061 989.647 717.641 988.837 718.006 987.926C722.763 976.151 740.067 932.693 737.941 928.839C735.495 924.374 714.417 869.805 714.417 869.805L672.235 883.414Z" fill="#00AA13"/>
<path opacity="0.6" d="M713.726 991.462L736.266 925.012L737.329 927.324C738.231 929.33 738.391 931.59 737.781 933.703C736.133 939.365 731.269 954.967 718.165 987.714C717.794 988.658 717.194 989.494 716.419 990.149C715.644 990.803 714.719 991.254 713.726 991.462Z" fill="white"/>
<g opacity="0.6">
<path d="M717.075 912.386C716.622 913.181 716.48 914.116 716.676 915.009C716.873 915.903 717.394 916.692 718.138 917.224C718.921 917.707 719.859 917.872 720.759 917.684C721.659 917.496 722.453 916.97 722.976 916.214C723.443 915.364 723.582 914.372 723.366 913.426C723.151 912.481 722.596 911.647 721.806 911.084C720.941 910.664 719.945 910.598 719.032 910.901C718.118 911.204 717.359 911.851 716.916 912.705" fill="white"/>
</g>
<path d="M715.48 961.878C713.469 960.583 711.146 959.855 708.755 959.771C706.364 959.687 703.996 960.25 701.898 961.4C701.898 961.4 702.297 960.549 703.493 959.805C705.093 958.841 706.942 958.369 708.809 958.449C710.664 958.506 712.464 959.097 713.992 960.15C715.161 961.001 715.587 961.772 715.48 961.878Z" fill="#263238"/>
<path d="M715.002 970.968C713.041 970.789 711.07 970.735 709.101 970.809C707.183 971.266 705.292 971.834 703.44 972.51C703.147 972.297 705.274 969.852 708.915 969.48C709.975 969.222 711.081 969.223 712.14 969.482C713.199 969.741 714.181 970.251 715.002 970.968Z" fill="#263238"/>
<path d="M718.511 949.199C715.507 948.676 712.468 948.383 709.42 948.322C706.383 948.663 703.378 949.25 700.436 950.076C703.05 948.217 706.141 947.147 709.345 946.991C712.548 946.836 715.729 947.602 718.511 949.199Z" fill="#263238"/>
<path d="M712.025 932.055C712.025 932.454 708.437 932.534 704.423 934.182C700.41 935.83 697.725 938.142 697.459 937.85C698.98 935.503 701.275 933.763 703.945 932.932C706.45 931.695 709.313 931.384 712.025 932.055Z" fill="#263238"/>
<path d="M704.822 915.921C702.085 916.233 699.403 916.912 696.848 917.941C694.478 919.326 692.313 921.034 690.416 923.018C690.283 923.018 690.548 921.982 691.505 920.706C692.756 919.018 694.398 917.658 696.29 916.745C698.162 915.809 700.231 915.335 702.323 915.363C703.918 915.416 704.848 915.788 704.822 915.921Z" fill="#263238"/>
<path d="M695.572 914.858C695.111 914.244 694.769 913.55 694.562 912.812C693.906 910.826 693.645 908.731 693.791 906.645C693.76 905.108 694.237 903.604 695.147 902.366C695.475 902.005 695.902 901.75 696.375 901.631C696.848 901.513 697.345 901.537 697.805 901.701C698.7 902.139 699.408 902.884 699.798 903.801C700.503 905.7 700.523 907.786 699.853 909.699C699.183 911.611 697.866 913.229 696.13 914.273C694.396 915.271 692.405 915.733 690.409 915.601C688.413 915.468 686.5 914.747 684.913 913.529C684.509 913.212 684.181 912.809 683.951 912.349C683.721 911.89 683.596 911.385 683.584 910.871C683.611 910.363 683.798 909.876 684.118 909.48C684.437 909.084 684.874 908.799 685.365 908.665C686.852 908.365 688.39 908.457 689.831 908.931C691.865 909.463 693.784 910.364 695.492 911.589C696.688 912.413 697.22 913.024 697.167 913.104C694.831 911.657 692.284 910.581 689.618 909.914C688.348 909.539 687.003 909.493 685.711 909.781C685.44 909.849 685.199 910.002 685.022 910.217C684.845 910.433 684.742 910.699 684.727 910.977C684.774 911.303 684.886 911.617 685.054 911.9C685.223 912.182 685.446 912.429 685.711 912.625C687.108 913.641 688.768 914.234 690.493 914.333C692.218 914.432 693.935 914.033 695.439 913.184C696.946 912.307 698.102 910.936 698.713 909.303C699.323 907.67 699.35 905.876 698.788 904.226C698.549 903.573 698.075 903.033 697.459 902.711C697.206 902.595 696.922 902.564 696.649 902.621C696.376 902.678 696.129 902.822 695.944 903.03C695.165 904.075 694.736 905.341 694.721 906.645C694.52 909.411 694.807 912.192 695.572 914.858Z" fill="#263238"/>
<path d="M759.47 782.809L688.475 734.965L711.972 504.277L644.724 465.018L583.245 450.771C583.245 450.771 557.569 504.197 546.033 538.485C521.739 611.235 504.701 637.31 508.608 689.991C509.831 706.684 571.443 748.467 610.357 771.618C610.793 776.251 611.485 780.857 612.43 785.413C625.72 845.537 666.334 925.49 666.334 925.49L728 896.81L708.118 828.633L728.85 840.726L759.47 782.809ZM606.875 633.961L615.168 596.988C613.413 620.511 611.818 645.044 610.675 668.568C606.667 657.528 605.363 645.688 606.875 634.04V633.961Z" fill="#263238"/>
<path d="M666.44 925.49C666.251 925.178 666.09 924.849 665.962 924.507L664.659 921.609L659.902 910.366C655.808 900.558 649.934 886.444 642.89 868.768C635.847 851.093 627.501 830.148 618.968 806.491C616.869 800.564 614.822 794.477 612.882 788.178C612.031 784.988 610.941 781.852 610.383 778.476C610.224 777.652 610.038 776.802 609.905 775.978L609.612 773.452L609.054 768.402C608.31 761.598 607.716 754.669 607.273 747.617C607.061 744.108 606.875 740.546 606.715 736.985C606.556 733.423 606.449 729.782 606.715 726.14C607.778 697.168 610.197 669.684 612.217 644.672C614.237 619.661 616.178 597.174 617.772 578.222C619.367 559.271 620.43 544.014 620.962 533.408C621.307 528.092 621.494 523.999 621.6 521.235L621.786 518.045C621.739 517.692 621.739 517.335 621.786 516.982C621.816 517.336 621.816 517.691 621.786 518.045C621.786 518.843 621.786 519.879 621.786 521.235C621.786 524.026 621.653 528.146 621.414 533.435C620.962 544.067 620.032 559.377 618.623 578.302C617.214 597.227 615.327 619.74 613.307 644.752C611.287 669.764 608.974 697.248 607.991 726.14C607.778 729.755 607.991 733.317 607.991 736.905C607.991 740.493 608.31 744.002 608.549 747.537C608.974 754.625 609.55 761.527 610.277 768.243L610.835 773.32L611.127 775.818C611.26 776.642 611.446 777.439 611.606 778.263C612.137 781.506 613.201 784.669 614.051 787.832C615.938 794.079 617.985 800.165 620.058 806.093C628.404 829.722 636.671 850.747 643.582 868.423C650.492 886.098 656.26 900.319 660.221 910.153C662.161 915.044 663.703 918.845 664.766 921.503C665.244 922.752 665.643 923.736 665.909 924.453C666.175 925.171 666.44 925.49 666.44 925.49Z" fill="#455A64"/>
<path d="M618.968 509.167C618.968 509.167 618.357 508.795 617.374 507.865C616.104 506.436 615.088 504.799 614.37 503.027C612.266 497.164 611.239 490.969 611.34 484.74C611.259 478.526 611.552 472.313 612.217 466.134C612.342 463.582 612.698 461.047 613.28 458.559C613.498 461.106 613.498 463.667 613.28 466.214C613.041 470.919 612.669 477.431 612.775 484.608C612.733 490.707 613.63 496.776 615.433 502.602C616.058 504.311 616.907 505.928 617.958 507.413C618.596 508.503 619.048 509.114 618.968 509.167Z" fill="#455A64"/>
<path d="M592.442 454.28C593.069 456.363 593.25 458.554 592.973 460.712C592.62 466.004 590.859 471.106 587.873 475.489C584.887 479.872 580.784 483.378 575.989 485.644C574.076 486.687 571.967 487.321 569.795 487.505C569.795 487.292 572.108 486.654 575.563 484.847C580.061 482.454 583.91 479.005 586.78 474.797C589.651 470.588 591.457 465.746 592.043 460.686C592.495 456.752 592.202 454.28 592.442 454.28Z" fill="#455A64"/>
<path d="M702.749 588.402C702.749 588.402 702.749 588.642 702.749 589.094C702.749 589.545 702.749 590.316 702.589 591.14C702.376 593.054 702.111 595.712 701.792 599.114C701.021 606.052 699.958 615.913 698.629 628.033C695.971 652.567 692.037 686.243 687.837 723.482C686.34 741.012 687.514 758.667 691.319 775.845C692.985 783.327 695.124 790.695 697.725 797.906C700.117 804.71 702.323 811.063 704.37 816.884C708.384 828.42 711.626 837.803 713.912 844.394C714.975 847.584 715.826 850.083 716.57 851.89L717.208 853.857C717.297 854.068 717.351 854.293 717.368 854.521C717.368 854.521 717.368 854.335 717.075 853.883C716.783 853.432 716.623 852.767 716.331 851.97C715.64 850.189 714.736 847.717 713.673 844.554L703.732 817.203C701.659 811.409 699.373 805.056 696.928 798.278C694.264 791.029 692.071 783.615 690.362 776.084C686.448 758.797 685.22 741.01 686.721 723.349C690.867 686.004 695.014 652.354 697.911 627.927C699.426 615.806 700.569 605.945 701.499 599.034C701.925 595.685 702.27 593.081 702.536 591.06C702.536 590.236 702.749 589.572 702.828 589.04C702.772 588.833 702.745 588.618 702.749 588.402Z" fill="#455A64"/>
<path d="M583.245 450.373L594.143 422.543L618.995 459.596L585.85 451.329" fill="#FFBE9D"/>
<path d="M843.251 366.725L813.773 300.621C810.238 289.989 803.62 288.341 798.091 282.174L724.225 240.523C670.374 218.462 641.056 292.408 641.056 292.408L592.123 404.044C534.577 423.101 575.324 467.304 575.324 467.304C575.324 467.304 559.668 440.086 575.085 430.278C591.192 419.992 609.054 447.077 626.225 472.806C646.505 503.16 712.371 522.883 712.371 522.883C720.079 514.749 717.926 486.335 723.959 471.078C725.873 466.267 771.485 360.612 771.485 360.612L789.16 403.432C789.16 403.432 811.806 376.852 822.81 372.653C829.443 370.101 836.281 368.118 843.251 366.725Z" fill="#00AA13"/>
<path d="M712.344 413.719C711.668 414.332 710.918 414.859 710.111 415.287C707.965 416.533 705.715 417.591 703.387 418.45C695.644 421.366 687.281 422.235 679.104 420.974C670.928 419.712 663.215 416.361 656.712 411.247C654.748 409.73 652.924 408.04 651.263 406.197C650.604 405.57 650.048 404.843 649.615 404.044C649.801 403.858 652.273 406.861 657.27 410.503C663.765 415.294 671.323 418.439 679.299 419.671C687.275 420.902 695.431 420.182 703.068 417.573C708.968 415.606 712.344 413.506 712.344 413.719Z" fill="#263238"/>
<path d="M590.076 308.834L635.661 313.14L708.596 236.058L665.696 234.569L589.332 242.118C593.349 264.155 593.601 286.713 590.076 308.834Z" fill="#00AA13"/>
<path d="M653.257 268.273C653.146 268.769 652.958 269.245 652.698 269.682L650.864 273.615C649.216 277.177 646.904 282.094 644.113 288.048C638.452 300.275 630.823 317.286 622.849 336.158C614.875 355.03 607.273 372.121 601.585 384.374C598.794 390.514 596.482 395.432 594.834 398.834L592.893 402.715C592.69 403.187 592.431 403.633 592.123 404.044C592.258 403.551 592.436 403.07 592.654 402.608L594.355 398.621L600.735 384.002C606.051 371.483 613.466 354.445 621.547 335.627C629.627 316.808 637.495 299.797 643.263 287.65C646.213 281.589 648.579 276.725 650.413 273.376C651.263 271.835 651.928 270.559 652.459 269.549C652.679 269.096 652.946 268.669 653.257 268.273Z" fill="#263238"/>
<path d="M792.403 290.68C792.536 290.919 789.745 292.381 785.838 295.677C783.597 297.598 781.541 299.724 779.698 302.03C777.452 304.876 775.51 307.949 773.903 311.2C772.361 314.473 771.15 317.892 770.288 321.406C769.618 324.295 769.227 327.241 769.119 330.204C768.933 335.254 769.518 338.391 769.252 338.418C768.972 337.729 768.793 337.004 768.72 336.265C768.52 335.391 768.396 334.502 768.348 333.607C768.212 332.442 768.15 331.27 768.162 330.098C768.142 327.061 768.454 324.03 769.092 321.061C769.89 317.395 771.093 313.829 772.681 310.429C774.345 307.099 776.368 303.962 778.714 301.073C780.657 298.749 782.84 296.638 785.226 294.773C786.126 294.035 787.077 293.36 788.07 292.753C788.786 292.241 789.541 291.788 790.33 291.398C790.978 291.05 791.678 290.808 792.403 290.68Z" fill="#263238"/>
<path d="M805.135 184.812L762.368 264.764C758.997 271.052 753.37 275.831 746.619 278.139C739.869 280.447 732.494 280.113 725.98 277.204C722.469 275.616 719.321 273.325 716.73 270.474C714.138 267.622 712.159 264.27 710.914 260.623C709.668 256.977 709.183 253.114 709.489 249.273C709.794 245.432 710.884 241.694 712.69 238.291L720.052 224.416C720.052 224.416 701.446 212.375 710.164 192.281C717.926 174.366 746.42 123.757 752.453 113.072L788.496 129.206C793.294 131.708 797.541 135.147 800.987 139.319C804.433 143.491 807.008 148.311 808.559 153.495C810.11 158.679 810.607 164.121 810.018 169.5C809.43 174.879 807.77 180.086 805.135 184.812Z" fill="#FFBE9D"/>
<path d="M720.052 224.124C729.205 228.421 739.428 229.901 749.423 228.376C749.423 228.376 736.824 239.992 717.687 229.28L720.052 224.124Z" fill="#EB996E"/>
<path d="M733.794 160.199C733.454 160.941 733.416 161.786 733.689 162.555C733.962 163.325 734.524 163.957 735.256 164.319C735.606 164.508 735.99 164.627 736.387 164.666C736.783 164.706 737.183 164.667 737.564 164.551C737.945 164.435 738.299 164.244 738.605 163.989C738.912 163.735 739.165 163.422 739.349 163.069C739.69 162.327 739.727 161.482 739.454 160.713C739.181 159.943 738.619 159.311 737.887 158.949C737.537 158.76 737.153 158.641 736.757 158.601C736.36 158.562 735.96 158.601 735.579 158.717C735.198 158.833 734.844 159.024 734.538 159.279C734.231 159.533 733.979 159.846 733.794 160.199Z" fill="#263238"/>
<path d="M733.954 157.674C734.14 158.205 737.01 157.674 740.094 158.949C743.177 160.225 744.718 162.857 745.223 162.644C745.728 162.431 745.383 161.714 744.745 160.571C743.822 159.057 742.459 157.861 740.838 157.142C739.238 156.424 737.452 156.229 735.734 156.584C734.485 156.876 733.847 157.328 733.954 157.674Z" fill="#263238"/>
<path d="M762.527 174.339C762.18 175.08 762.138 175.928 762.412 176.699C762.686 177.471 763.252 178.103 763.989 178.459C764.341 178.648 764.727 178.765 765.124 178.803C765.521 178.841 765.922 178.799 766.303 178.68C766.685 178.561 767.038 178.368 767.344 178.111C767.649 177.854 767.9 177.538 768.082 177.183C768.415 176.444 768.448 175.605 768.175 174.842C767.903 174.079 767.346 173.451 766.62 173.09C766.271 172.896 765.886 172.775 765.489 172.733C765.092 172.692 764.691 172.73 764.309 172.847C763.927 172.963 763.572 173.155 763.266 173.412C762.96 173.668 762.709 173.984 762.527 174.339Z" fill="#263238"/>
<path d="M763.883 171.734C764.069 172.266 766.939 171.734 770.023 173.01C773.106 174.286 774.647 176.944 775.152 176.731C775.658 176.519 775.339 175.801 774.674 174.632C773.748 173.127 772.385 171.94 770.767 171.229C769.17 170.499 767.38 170.303 765.663 170.671C764.414 170.964 763.776 171.495 763.883 171.734Z" fill="#263238"/>
<path d="M742.539 189.516C741.145 188.301 739.61 187.257 737.967 186.407C737.223 185.955 736.532 185.476 736.638 184.891C736.745 184.307 737.436 183.536 738.206 182.792L743.203 177.848C747.616 173.748 751.696 169.304 755.404 164.558C750.647 168.273 746.202 172.371 742.114 176.811L737.196 181.835C736.281 182.561 735.65 183.587 735.416 184.732C735.411 185.059 735.478 185.382 735.611 185.68C735.744 185.979 735.941 186.245 736.186 186.46C736.57 186.766 736.99 187.024 737.436 187.231C739.024 188.224 740.741 188.993 742.539 189.516Z" fill="#263238"/>
<path d="M750.619 195.683C750.141 195.444 748.652 198.766 744.745 199.856C740.838 200.946 737.436 199.005 737.196 199.457C736.957 199.909 737.701 200.441 739.19 201.158C741.126 202.065 743.321 202.253 745.383 201.69C747.371 201.163 749.071 199.874 750.114 198.102C750.859 196.773 750.859 195.789 750.619 195.683Z" fill="#263238"/>
<path d="M768.481 159.348C768.481 160.332 771.644 161.288 775.046 163.335C778.449 165.382 780.947 167.668 781.744 167.136C782.117 166.87 781.957 165.86 781.16 164.478C780.026 162.792 778.527 161.383 776.774 160.357C775.02 159.33 773.058 158.713 771.033 158.551C769.491 158.551 768.508 158.896 768.481 159.348Z" fill="#263238"/>
<path d="M739.057 149.354C739.296 150.311 741.715 150.524 744.373 151.613C747.031 152.703 748.865 154.271 749.689 153.687C750.513 153.102 750.061 152.57 749.397 151.507C748.521 150.127 747.226 149.065 745.702 148.477C744.195 147.826 742.52 147.668 740.917 148.025C739.588 148.238 738.924 148.822 739.057 149.354Z" fill="#263238"/>
<path d="M791.685 196.799C792.111 196.799 807.235 198.873 800.696 212.349C794.157 225.825 782.09 216.469 782.09 216.07C782.09 215.671 791.685 196.799 791.685 196.799Z" fill="#FFBE9D"/>
<path d="M788.735 212.96C788.735 212.96 788.894 213.226 789.187 213.624C789.638 214.13 790.266 214.443 790.941 214.502C792.096 214.385 793.198 213.962 794.133 213.274C795.068 212.587 795.802 211.662 796.257 210.594C796.851 209.459 797.186 208.206 797.241 206.926C797.316 206.443 797.272 205.949 797.115 205.486C796.958 205.023 796.691 204.606 796.337 204.268C796.098 204.069 795.797 203.96 795.486 203.96C795.176 203.96 794.875 204.069 794.636 204.268C794.29 204.561 794.237 204.853 794.157 204.853C794.078 204.853 793.971 204.481 794.343 203.976C794.587 203.678 794.924 203.472 795.3 203.391C795.807 203.296 796.331 203.401 796.762 203.683C797.258 204.063 797.65 204.562 797.901 205.133C798.152 205.705 798.254 206.331 798.197 206.953C798.202 208.396 797.855 209.819 797.187 211.099C796.671 212.331 795.803 213.384 794.692 214.126C793.582 214.868 792.277 215.267 790.941 215.272C790.529 215.19 790.138 215.022 789.795 214.78C789.451 214.537 789.163 214.225 788.948 213.864C788.602 213.305 788.682 212.96 788.735 212.96Z" fill="#EB996E"/>
<path d="M799.5 199.856C798.248 199.224 796.852 198.932 795.452 199.012C794.052 199.091 792.698 199.538 791.526 200.308C789.772 201.849 788.575 203.976 786.821 205.624C786.013 206.481 784.942 207.046 783.778 207.229C782.613 207.412 781.421 207.202 780.389 206.634C779.784 206.094 779.333 205.404 779.081 204.634C778.829 203.864 778.785 203.041 778.953 202.248C779.31 200.658 779.968 199.151 780.894 197.809C784.535 191.802 788.708 186.061 791.845 179.762C795.257 173.539 796.747 166.444 796.124 159.375C795.764 155.859 794.463 152.505 792.358 149.666C790.253 146.827 787.422 144.607 784.163 143.241C779.777 141.699 774.887 142.151 770.395 140.875C767.736 140.077 765.293 138.686 763.249 136.808C761.205 134.93 759.613 132.612 758.593 130.03C758.064 128.989 757.479 127.977 756.839 127C756.998 126.681 758.593 123.97 760.161 123.439C772.016 119.425 788.044 124.023 797.852 131.758C802.858 135.648 806.955 140.585 809.857 146.222C812.758 151.86 814.394 158.063 814.65 164.398C814.783 176.891 806.916 190.659 799.606 199.962" fill="#263238"/>
<path d="M799.633 198.394C803.38 192.015 809.441 187.417 814.066 181.675C818.691 175.934 822.04 167.827 818.584 161.235C817.468 158.976 815.66 157.089 814.73 154.75C813.994 152.321 813.548 149.814 813.401 147.281C812.801 143.409 811.332 139.724 809.104 136.502C806.875 133.279 803.946 130.603 800.536 128.675C795.805 126.017 790.356 124.954 785.545 122.428C777.97 118.441 772.415 111.052 764.281 107.889C763 107.264 761.601 106.917 760.177 106.871C758.752 106.826 757.334 107.082 756.015 107.623C755.384 107.93 754.825 108.367 754.374 108.904C753.923 109.441 753.59 110.067 753.397 110.742C753.204 111.416 753.155 112.124 753.253 112.819C753.352 113.513 753.595 114.179 753.968 114.773C753.811 114.161 753.522 113.591 753.121 113.102C752.72 112.614 752.217 112.219 751.647 111.945C751.077 111.672 750.454 111.526 749.822 111.519C749.19 111.511 748.564 111.643 747.988 111.903C746.857 112.519 745.933 113.456 745.332 114.596C744.732 115.735 744.481 117.027 744.612 118.309C744.924 120.867 745.926 123.292 747.509 125.326C752.438 132.312 759.694 137.316 767.976 139.44L786.343 138.004L801.387 149.141L812.497 166.87L792.323 193.078L799.633 198.394Z" fill="#263238"/>
<path d="M684.834 93.8018C684.087 82.2206 680.244 71.0524 673.706 61.464C667.168 51.8756 658.175 44.2189 647.667 39.2938C637.159 34.3686 625.52 32.3559 613.968 33.4658C602.416 34.5757 591.374 38.7675 581.996 45.6032C572.618 52.439 565.247 61.6679 560.654 72.3257C556.061 82.9835 554.415 94.6791 555.887 106.191C557.359 117.702 561.896 128.607 569.023 137.766C576.149 146.925 585.605 154.002 596.402 158.258C596.907 165.913 597.465 174.578 597.465 174.578L654.134 170.91C654.134 170.91 653.895 161.74 653.469 153.554C663.685 147.44 672.018 138.628 677.551 128.087C683.085 117.545 685.604 105.682 684.834 93.8018Z" fill="#00AA13"/>
<path d="M633.614 171.974C633.614 171.974 633.614 171.681 633.614 171.176C633.614 170.671 633.614 169.821 633.614 168.811C633.614 166.764 633.906 163.707 634.225 159.8C634.544 155.893 634.996 151.082 635.873 145.58C636.843 139.311 638.419 133.151 640.578 127.186C641.848 123.714 643.423 120.361 645.283 117.166C646.295 115.421 647.73 113.958 649.456 112.913C650.389 112.392 651.434 112.103 652.503 112.071C653.572 112.039 654.632 112.264 655.596 112.727C656.616 113.218 657.406 114.085 657.802 115.146C658.239 116.219 658.239 117.421 657.802 118.495C656.853 120.561 655.179 122.206 653.097 123.12C650.903 123.979 648.56 124.394 646.204 124.341C643.849 124.288 641.527 123.768 639.373 122.811C637.22 121.854 635.278 120.48 633.66 118.767C632.041 117.054 630.779 115.037 629.946 112.833C628.963 110.483 628.659 107.905 629.069 105.391C629.291 104.054 629.973 102.836 630.997 101.949C632.021 101.061 633.322 100.558 634.677 100.527C635.379 100.549 636.062 100.752 636.663 101.115C637.263 101.478 637.76 101.989 638.106 102.6C638.821 103.778 639.094 105.172 638.877 106.534C638.252 109.155 636.809 111.511 634.757 113.258C632.803 115.137 630.474 116.582 627.922 117.498C625.371 118.414 622.655 118.781 619.952 118.574C617.243 118.32 614.637 117.413 612.355 115.932C610.073 114.451 608.183 112.439 606.848 110.069C606.162 108.901 605.725 107.604 605.565 106.259C605.405 104.914 605.525 103.55 605.918 102.254C606.11 101.589 606.446 100.975 606.902 100.454C607.358 99.9327 607.923 99.5182 608.557 99.2393C609.191 98.9605 609.878 98.8242 610.57 98.8399C611.262 98.8556 611.942 99.0231 612.563 99.3305C613.786 99.8966 614.807 100.824 615.486 101.988C616.122 103.123 616.536 104.368 616.709 105.656C617.05 108.146 616.878 110.679 616.204 113.099C614.955 117.843 611.941 121.932 607.778 124.528C603.805 126.965 599.093 127.907 594.488 127.186C592.25 126.977 590.141 126.044 588.481 124.528C587.669 123.737 587.15 122.692 587.01 121.567C586.87 120.441 587.117 119.302 587.71 118.335C588.4 117.445 589.412 116.863 590.528 116.714C591.59 116.578 592.67 116.715 593.664 117.112C595.498 118.008 596.983 119.484 597.89 121.312C599.751 124.714 601.266 128.037 602.808 131.2C608.815 143.905 613.174 154.404 616.098 161.687C617.56 165.329 618.756 168.173 619.394 170.086C619.739 171.043 620.005 171.788 620.218 172.293C620.315 172.544 620.395 172.801 620.457 173.063L620.138 172.319L619.234 170.166L615.805 161.793C612.775 154.564 608.336 144.091 602.276 131.439C600.735 128.303 599.166 124.927 597.332 121.604C596.48 119.91 595.099 118.538 593.398 117.697C592.539 117.293 591.574 117.172 590.642 117.354C589.71 117.536 588.86 118.01 588.215 118.707C587.733 119.551 587.544 120.53 587.679 121.492C587.814 122.455 588.264 123.345 588.96 124.023C590.51 125.437 592.479 126.305 594.568 126.495C599.01 127.156 603.543 126.214 607.353 123.837C611.303 121.306 614.151 117.375 615.327 112.833C615.977 110.508 616.14 108.074 615.805 105.683C615.727 104.495 615.347 103.346 614.7 102.346C614.054 101.346 613.162 100.527 612.111 99.9684C611.581 99.725 611.006 99.5989 610.423 99.5989C609.84 99.5989 609.265 99.725 608.735 99.9684C608.197 100.225 607.721 100.596 607.34 101.055C606.959 101.514 606.682 102.05 606.529 102.626C606.172 103.818 606.065 105.071 606.216 106.307C606.367 107.542 606.772 108.732 607.406 109.803C608.7 112.034 610.509 113.922 612.683 115.309C614.856 116.697 617.331 117.543 619.899 117.777C622.488 117.969 625.089 117.611 627.531 116.727C629.972 115.843 632.199 114.452 634.066 112.647C635.967 111.026 637.315 108.852 637.92 106.427C638.106 105.242 637.871 104.029 637.255 102.998C636.97 102.503 636.565 102.088 636.078 101.791C635.59 101.494 635.035 101.324 634.465 101.297C633.291 101.305 632.163 101.75 631.302 102.547C630.436 103.339 629.856 104.395 629.654 105.55C629.261 107.92 629.546 110.353 630.478 112.567C631.272 114.699 632.485 116.652 634.044 118.309C635.603 119.966 637.477 121.296 639.556 122.219C641.636 123.143 643.879 123.642 646.154 123.687C648.429 123.732 650.69 123.322 652.805 122.482C654.727 121.642 656.277 120.13 657.164 118.229C657.544 117.333 657.569 116.326 657.233 115.412C656.898 114.499 656.226 113.748 655.356 113.312C654.485 112.891 653.526 112.686 652.559 112.714C651.593 112.741 650.647 113.001 649.801 113.471C648.192 114.46 646.85 115.829 645.894 117.458C644.05 120.612 642.485 123.92 641.216 127.346C639.032 133.254 637.43 139.361 636.431 145.58C635.501 151.082 634.996 155.866 634.624 159.773C634.252 163.681 634.066 166.684 633.88 168.784C633.88 169.767 633.72 170.565 633.694 171.123C633.667 171.681 633.614 171.974 633.614 171.974Z" fill="#263238"/>
<path d="M650.439 181.675L601.798 184.838C600.826 184.897 599.871 184.569 599.139 183.927C598.407 183.285 597.959 182.38 597.891 181.409C597.832 180.441 598.16 179.488 598.803 178.761C599.446 178.033 600.351 177.59 601.319 177.529L649.987 174.392C650.466 174.36 650.946 174.422 651.4 174.576C651.854 174.729 652.274 174.971 652.634 175.287C652.995 175.603 653.29 175.988 653.501 176.418C653.713 176.848 653.838 177.316 653.868 177.795C653.926 178.763 653.598 179.716 652.955 180.443C652.313 181.171 651.408 181.614 650.439 181.675Z" fill="#263238"/>
<path d="M650.652 184.865L601.984 188.028C601.018 188.091 600.117 188.536 599.479 189.264C598.841 189.991 598.518 190.943 598.582 191.909C598.645 192.874 599.09 193.775 599.817 194.413C600.545 195.051 601.497 195.374 602.462 195.311L607.778 194.965L615.752 208.016C616.206 208.744 616.848 209.336 617.611 209.729C618.374 210.122 619.228 210.302 620.085 210.249L637.468 209.132C638.328 209.066 639.155 208.769 639.861 208.273C640.567 207.778 641.127 207.101 641.482 206.315L647.489 192.414L651.13 192.174C652.062 192.062 652.915 191.597 653.514 190.875C654.113 190.153 654.413 189.229 654.351 188.293C654.29 187.357 653.872 186.48 653.184 185.842C652.496 185.205 651.59 184.855 650.652 184.865Z" fill="#263238"/>
<g opacity="0.2">
<path d="M575.962 59.4604C579.547 55.6474 583.742 52.4584 588.375 50.0245C591.406 48.3663 594.667 47.166 598.05 46.4628C600.495 46.0641 601.904 46.197 602.064 46.702C602.409 47.8716 597.625 49.9182 591.432 54.676C583.159 60.6961 576.792 68.9694 573.093 78.5086C569.393 88.0478 568.516 98.45 570.566 108.474C571.975 116.315 574.128 121.046 573.224 121.764C572.746 122.056 571.629 121.206 570.114 119.265C568.033 116.461 566.401 113.349 565.277 110.042C563.555 105.12 562.657 99.9469 562.619 94.7321C562.495 88.2425 563.623 81.7899 565.941 75.7274" fill="white"/>
</g>
<g opacity="0.2">
<path d="M617.852 48.5095C613.759 48.7221 610.064 47.845 609.506 45.692C609.267 44.6288 609.958 43.4327 611.367 42.4492C613.191 41.3408 615.257 40.6937 617.388 40.564C619.518 40.4343 621.648 40.826 623.593 41.705C625.135 42.529 625.932 43.6453 625.826 44.7351" fill="white"/>
</g>
<path d="M640.578 207.511C639.419 207.308 638.274 207.033 637.149 206.687C634.416 206.11 631.613 205.939 628.83 206.182C626.087 206.478 623.401 207.167 620.856 208.229C618.889 209.079 617.719 209.77 617.666 209.664C618.525 208.845 619.524 208.188 620.616 207.724C623.202 206.464 625.993 205.68 628.856 205.411C631.722 205.135 634.614 205.387 637.388 206.155C638.521 206.424 639.599 206.882 640.578 207.511Z" fill="#455A64"/>
<path d="M647.622 192.573C647.622 192.786 638.85 193.53 627.979 194.248C617.108 194.965 608.336 195.337 608.31 195.098C608.283 194.859 617.081 194.141 627.926 193.45C638.771 192.759 647.595 192.36 647.622 192.573Z" fill="#455A64"/>
<path d="M644.937 198.554C643.375 198.941 641.784 199.199 640.179 199.324C637.229 199.723 633.136 200.148 628.59 200.52C624.045 200.893 619.952 201.079 616.975 201.158C615.375 201.304 613.764 201.304 612.164 201.158C613.74 200.838 615.341 200.66 616.948 200.627L628.537 199.75L640.126 198.793C641.72 198.577 643.33 198.497 644.937 198.554Z" fill="#455A64"/>
<path d="M294.506 524.132L305.138 541.063C305.138 541.063 350.324 499.572 394.952 511.294C394.872 511.241 354.684 477.165 294.506 524.132Z" fill="#00AA13"/>
<path d="M394.872 511.241C394.872 511.241 427.965 475.305 476.5 483.491L489.79 485.485L485.59 477.856C485.59 477.856 401.092 448.937 394.872 511.241Z" fill="#00AA13"/>
<path d="M325.02 390.062C325.02 390.062 258.73 378.66 215.298 402.183L284.406 532.106C284.406 532.106 340.915 477.644 394.979 511.188L325.02 390.062Z" fill="#F5F5F5"/>
<path d="M325.02 390.062C325.157 390.231 325.281 390.408 325.392 390.594L326.376 392.242L330.203 398.701L344.557 423.314L395.378 511.028C395.441 511.139 395.466 511.268 395.449 511.395C395.432 511.522 395.373 511.64 395.283 511.731C395.192 511.821 395.074 511.88 394.947 511.897C394.82 511.914 394.691 511.889 394.58 511.825C386.788 507.007 378.159 503.698 369.143 502.071C364.408 501.304 359.613 500.966 354.816 501.061C349.883 501.278 344.976 501.9 340.144 502.921C319.721 507.94 300.879 517.991 285.336 532.159L284.752 532.691C284.692 532.754 284.62 532.805 284.54 532.84C284.46 532.874 284.374 532.892 284.286 532.892C284.199 532.892 284.113 532.874 284.033 532.84C283.953 532.805 283.881 532.754 283.821 532.691V532.558L214.793 402.449C214.756 402.389 214.733 402.321 214.724 402.251C214.715 402.181 214.72 402.11 214.74 402.043C214.76 401.975 214.794 401.913 214.84 401.859C214.886 401.805 214.942 401.762 215.006 401.731C228.858 394.82 243.805 390.369 259.182 388.574C270.915 387.13 282.745 386.615 294.56 387.032C304.341 387.378 311.969 388.149 317.126 388.787C319.784 389.106 321.698 389.398 323.027 389.637L324.542 389.903H325.02H324.515L323 389.717C321.671 389.557 319.704 389.292 317.099 389.026C311.783 388.494 304.288 387.83 294.533 387.591C282.765 387.265 270.99 387.86 259.314 389.371C244.065 391.246 229.255 395.743 215.537 402.661L215.75 401.944L284.858 531.867L283.821 531.681L284.406 531.149C292.465 523.948 301.331 517.704 310.827 512.543C319.935 507.525 329.706 503.821 339.852 501.539C344.759 500.49 349.748 499.867 354.763 499.678C359.64 499.566 364.517 499.913 369.329 500.715C378.487 502.4 387.249 505.78 395.165 510.683L394.341 511.48L344.078 423.766L329.938 398.94L326.243 392.348C325.844 391.604 325.525 391.046 325.313 390.621C325.202 390.442 325.104 390.255 325.02 390.062Z" fill="#263238"/>
<path d="M429.214 363.403C429.214 363.403 379.084 331.507 325.871 389.983L395.723 511.161C395.723 511.161 409.97 461.988 493.378 479.079L429.214 363.403Z" fill="#F5F5F5"/>
<path d="M429.214 363.403C429.351 363.555 429.467 363.725 429.559 363.908C429.772 364.306 430.091 364.811 430.463 365.476L433.998 371.643L447.288 395.139L493.883 478.946C493.921 479.01 493.945 479.082 493.955 479.155C493.964 479.229 493.959 479.304 493.939 479.376C493.919 479.448 493.885 479.515 493.839 479.574C493.793 479.632 493.736 479.681 493.67 479.717C493.542 479.766 493.4 479.766 493.272 479.717L480.859 477.67C478.739 477.31 476.6 477.07 474.453 476.953L467.914 476.421C465.696 476.235 463.468 476.181 461.243 476.261L454.518 476.288C452.232 476.288 449.973 476.74 447.687 476.953C445.38 477.142 443.089 477.488 440.829 477.989L433.998 479.531L427.274 481.896C425.063 482.788 422.898 483.791 420.788 484.9C419.692 485.399 418.642 485.995 417.652 486.681L414.595 488.648C412.575 490.003 410.767 491.651 408.88 493.166C407.1 494.835 405.422 496.61 403.857 498.482C400.639 502.26 398.119 506.58 396.414 511.241C396.354 511.406 396.231 511.541 396.071 511.616C395.912 511.691 395.729 511.699 395.564 511.639C395.417 511.587 395.294 511.483 395.218 511.347L392.401 506.483C367.708 463.556 344.557 423.553 325.446 390.142C325.381 390.043 325.347 389.928 325.347 389.81C325.347 389.692 325.381 389.577 325.446 389.478C335.996 377.532 348.864 367.856 363.269 361.037C374.446 355.935 386.699 353.635 398.966 354.339C406.801 354.807 414.51 356.53 421.798 359.442C423.706 360.226 425.569 361.113 427.38 362.1L428.762 362.898L429.187 363.217L428.709 362.977L427.3 362.26C426.051 361.648 424.19 360.745 421.692 359.788C412.367 356.239 402.425 354.596 392.454 354.956C382.483 355.317 372.685 357.674 363.641 361.888C349.399 368.725 336.687 378.372 326.269 390.249V389.611L393.384 506.031L396.308 510.842L395.085 511.001C396.842 506.153 399.443 501.654 402.767 497.711C404.388 495.789 406.11 493.952 407.923 492.209C409.89 490.641 411.724 488.94 413.797 487.585L416.907 485.564C417.925 484.87 419.001 484.265 420.123 483.757C422.356 482.72 424.456 481.471 426.742 480.674L433.573 478.308L440.537 476.74C442.83 476.224 445.157 475.877 447.501 475.703C449.813 475.491 452.099 475.065 454.385 475.039H461.216C463.459 474.932 465.706 474.985 467.941 475.198L474.533 475.756C476.699 475.86 478.856 476.099 480.992 476.474L493.484 478.574L492.873 479.424C473.815 444.87 457.894 415.925 446.677 395.538C441.122 385.411 436.736 377.384 433.732 371.855L430.33 365.582C429.985 364.891 429.692 364.36 429.48 363.961C429.267 363.562 429.214 363.403 429.214 363.403Z" fill="#263238"/>
<path d="M233.904 339.72L308.674 483.651C308.674 483.651 369.409 480.993 395.138 510.603L325.871 390.062C325.871 390.062 285.257 339.72 233.904 339.72Z" fill="#F5F5F5"/>
<path d="M233.904 339.72H235.818L241.559 339.959C242.197 339.959 242.888 339.959 243.579 339.959L245.785 340.331L250.782 341.155C252.718 341.476 254.628 341.938 256.497 342.537C258.663 343.057 260.801 343.687 262.903 344.425C280.765 350.379 304.74 364.785 326.269 389.611L395.643 510.071C395.73 510.223 395.754 510.403 395.709 510.572C395.665 510.741 395.555 510.886 395.404 510.975C395.291 511.066 395.15 511.115 395.005 511.115C394.86 511.115 394.72 511.066 394.607 510.975L391.683 508.051C386.124 502.714 379.639 498.436 372.545 495.426C365.674 492.354 358.504 490.002 351.148 488.408C337.192 485.312 322.913 483.902 308.62 484.209C308.507 484.21 308.396 484.181 308.298 484.125C308.2 484.069 308.119 483.988 308.062 483.89C286.267 441.628 267.661 405.505 254.45 379.936C248.018 367.31 242.861 357.21 239.22 350.246C237.492 346.87 236.137 344.239 235.206 342.272L234.196 340.278L233.877 339.614C234.036 339.838 234.17 340.078 234.276 340.331L235.392 342.378L239.592 350.352L255.168 380.175L309.125 483.358L308.567 483.039C322.956 482.691 337.333 484.083 351.388 487.186C358.821 488.801 366.071 491.17 373.024 494.256C380.257 497.343 386.868 501.72 392.533 507.174L395.564 510.151L394.474 510.922C368.771 466.134 344.982 424.616 325.366 390.355C315.757 379.139 304.762 369.189 292.646 360.745C283.399 354.212 273.314 348.955 262.664 345.116C260.571 344.361 258.442 343.714 256.284 343.175C254.435 342.557 252.543 342.077 250.623 341.74L245.652 340.836L243.499 340.438L241.532 340.278L233.904 339.72Z" fill="#263238"/>
<path d="M467.276 747.936L468.871 750.594C470.673 753.587 473.292 756.003 476.42 757.558L479.078 758.94L476.42 760.535C473.436 762.348 471.023 764.964 469.456 768.083L468.074 770.874L466.479 768.216C464.677 765.223 462.058 762.807 458.93 761.252L456.139 759.87L458.797 758.275C461.797 756.482 464.215 753.861 465.761 750.727L467.276 747.936Z" fill="#00AA13"/>
<path d="M319.917 199.67L321.512 202.328C323.315 205.313 325.934 207.72 329.06 209.265L331.718 210.647L329.06 212.269C326.056 214.056 323.636 216.679 322.096 219.818L320.714 222.476L319.119 219.818C317.315 216.817 314.685 214.4 311.544 212.854L308.753 211.471L311.411 209.877C314.399 208.056 316.812 205.431 318.375 202.301L319.917 199.67Z" fill="#00AA13"/>
<path d="M1001.91 294.268L1003.5 296.926C1005.31 299.927 1007.94 302.344 1011.08 303.89L1013.87 305.272L1011.21 306.867C1008.22 308.68 1005.82 311.308 1004.27 314.442L1002.89 317.1L1001.27 314.442C999.472 311.452 996.851 309.043 993.72 307.505L990.902 306.176L993.56 304.555C996.565 302.767 998.984 300.144 1000.52 297.006L1001.91 294.268Z" fill="#00AA13"/>
<path d="M921.369 782.357L922.964 785.015C924.777 788.001 927.405 790.408 930.539 791.952L933.33 793.334L930.672 794.956C927.68 796.758 925.264 799.377 923.708 802.504L922.353 805.295L920.731 802.637C918.938 799.638 916.317 797.22 913.182 795.673L910.392 794.291L913.05 792.696C916.05 790.892 918.468 788.262 920.014 785.121L921.369 782.357Z" fill="#00AA13"/>
<path d="M936.706 884.929L937.477 885.248C938.322 885.577 939.241 885.669 940.135 885.514L940.959 885.354L940.64 886.125C940.31 886.97 940.218 887.889 940.374 888.783L940.533 889.607L939.762 889.288C938.917 888.96 937.998 888.868 937.104 889.022L936.281 889.182L936.599 888.411C936.929 887.566 937.021 886.647 936.865 885.753L936.706 884.929Z" fill="#00AA13"/>
<path d="M983.088 191.377L983.832 191.696C984.678 192.021 985.596 192.113 986.49 191.962L987.288 191.802L986.995 192.573C986.653 193.415 986.561 194.338 986.729 195.231L986.889 196.055L986.118 195.736C985.272 195.411 984.354 195.319 983.46 195.47L982.663 195.63L982.955 194.859C983.297 194.017 983.389 193.094 983.221 192.201L983.088 191.377Z" fill="#00AA13"/>
<path d="M349.873 128.09L350.643 128.382C351.485 128.724 352.408 128.817 353.301 128.648H354.125L353.806 129.392C353.481 130.238 353.389 131.157 353.541 132.05L353.7 132.848L352.929 132.555C352.087 132.213 351.164 132.121 350.271 132.29H349.447L349.766 131.545C350.092 130.699 350.184 129.781 350.032 128.887L349.873 128.09Z" fill="#00AA13"/>
<path d="M427.938 668.089L428.709 668.382C429.548 668.736 430.474 668.829 431.367 668.647L432.191 668.515L431.872 669.285C431.542 670.13 431.45 671.05 431.606 671.943L431.766 672.741L430.995 672.448C430.153 672.106 429.23 672.014 428.337 672.183L427.513 672.342L427.832 671.571C428.157 670.725 428.249 669.807 428.097 668.913L427.938 668.089Z" fill="#00AA13"/>
<path d="M512.755 876.822L512.011 877.593L509.804 879.799L501.219 888.278L469.323 919.031V918.712C470.998 952.07 473.124 997.256 475.357 1047.76V1048.87L474.4 1048.26L462.891 1040.55L389.955 991.727H389.796V991.568C378.898 959.061 369.728 931.63 363.216 912.28C360.026 902.658 357.528 895.056 355.773 889.793L353.86 883.813C353.647 883.175 353.487 882.67 353.381 882.298C353.381 881.925 353.222 881.766 353.248 881.766L353.461 882.244L354.019 883.759C354.497 885.168 355.189 887.135 356.092 889.687L363.8 912.094C370.392 931.417 379.748 958.768 390.753 991.222L390.54 990.957L463.555 1039.7L475.064 1047.39L474.161 1047.89C472.008 997.389 470.067 952.203 468.632 918.792V918.606H468.765L500.874 888.145L509.618 879.932L511.904 877.832C512.462 877.035 512.755 876.822 512.755 876.822Z" fill="#00AA13"/>
<path d="M478.786 1032.47L478.546 1040L484.633 1044.46L477.403 1046.56L475.038 1053.71L470.785 1047.49L463.263 1047.47L467.888 1041.51L465.575 1034.34L472.672 1036.89L478.786 1032.47Z" fill="#00AA13"/>
<path d="M390.912 981.414L391.072 986.278L395.165 988.936L390.567 990.558L389.317 995.289L386.34 991.435L381.476 991.701L384.214 987.661L382.46 983.115L387.138 984.498L390.912 981.414Z" fill="#00AA13"/>
<path d="M353.062 872.622L356.73 877.354L362.711 876.982L359.362 881.952L361.541 887.507L355.8 885.859L351.175 889.66L350.962 883.68L345.939 880.463L351.547 878.417L353.062 872.622Z" fill="#00AA13"/>
<path d="M509.06 867.918L512.755 872.622L518.709 872.277L515.36 877.221L517.539 882.803L511.798 881.128L507.173 884.929L506.987 878.948L501.937 875.732L507.572 873.686L509.06 867.918Z" fill="#00AA13"/>
<path d="M468.127 913.476L470.466 916.506L474.267 916.267L472.14 919.43L473.523 922.992L469.855 921.928L466.904 924.347L466.771 920.546L463.555 918.473L467.143 917.17L468.127 913.476Z" fill="#00AA13"/>
<path d="M327.439 712.451C356.71 712.451 380.44 688.722 380.44 659.451C380.44 630.179 356.71 606.45 327.439 606.45C298.168 606.45 274.439 630.179 274.439 659.451C274.439 688.722 298.168 712.451 327.439 712.451Z" fill="#00AA13"/>
<g opacity="0.3">
<path d="M320.555 675.984C320.56 677.7 320.056 679.379 319.106 680.808C318.155 682.237 316.802 683.351 315.218 684.011C313.634 684.67 311.889 684.843 310.206 684.51C308.522 684.176 306.976 683.351 305.763 682.137C304.549 680.924 303.723 679.377 303.39 677.694C303.056 676.011 303.23 674.266 303.889 672.682C304.548 671.097 305.663 669.744 307.092 668.794C308.521 667.844 310.2 667.34 311.916 667.345C314.205 667.352 316.398 668.264 318.017 669.883C319.635 671.501 320.548 673.695 320.555 675.984Z" fill="white"/>
</g>
<g opacity="0.3">
<path d="M308.328 651.051C308.333 652.051 308.042 653.03 307.49 653.864C306.938 654.698 306.151 655.35 305.229 655.736C304.307 656.122 303.29 656.226 302.309 656.034C301.328 655.843 300.425 655.364 299.716 654.659C299.007 653.953 298.524 653.054 298.327 652.073C298.13 651.093 298.228 650.076 298.61 649.152C298.991 648.227 299.638 647.437 300.469 646.881C301.3 646.325 302.278 646.028 303.278 646.028C304.613 646.028 305.893 646.556 306.839 647.498C307.786 648.439 308.321 649.717 308.328 651.051Z" fill="white"/>
</g>
<path d="M276.007 672.342C276.246 673.272 230.635 717.023 242.41 726.353C254.185 735.682 303.544 711.76 345.779 677.711C388.015 643.662 426.449 602.304 415.897 591.353C405.345 580.402 352.663 612.803 352.663 612.803L358.963 616.843C358.963 616.843 390.859 596.403 400.906 604.324C410.953 612.245 382.3 643.237 341.712 672.847C301.125 702.457 261.972 723.19 255.939 715.083C249.905 706.976 278.532 679.944 278.532 679.944L276.007 672.342Z" fill="#00AA13"/>
<g opacity="0.3">
<path d="M276.007 672.342C276.246 673.272 230.635 717.023 242.41 726.353C254.185 735.682 303.544 711.76 345.779 677.711C388.015 643.662 426.449 602.304 415.897 591.353C405.345 580.402 352.663 612.803 352.663 612.803L358.963 616.843C358.963 616.843 390.859 596.403 400.906 604.324C410.953 612.245 382.3 643.237 341.712 672.847C301.125 702.457 261.972 723.19 255.939 715.083C249.905 706.976 278.532 679.944 278.532 679.944L276.007 672.342Z" fill="black"/>
</g>
<g opacity="0.3">
<path d="M298.228 622.106C298.653 622.611 295.065 625.668 290.998 631.781C285.603 639.636 282.627 648.9 282.438 658.428C282.249 667.955 284.855 677.33 289.935 685.393C293.762 691.692 297.218 694.882 296.766 695.36C296.314 695.839 292.247 693.287 287.516 687.014C284.783 683.344 282.615 679.285 281.084 674.974C277.205 664.24 277.442 652.45 281.748 641.881C283.444 637.622 285.774 633.643 288.659 630.08C293.629 624.02 297.988 621.734 298.228 622.106Z" fill="white"/>
</g>
<path d="M941.896 194.385C959.308 177.653 959.859 149.974 943.127 132.562C926.395 115.151 898.715 114.6 881.304 131.332C863.892 148.064 863.341 175.743 880.073 193.155C896.806 210.567 924.485 211.118 941.896 194.385Z" fill="#00AA13"/>
<g opacity="0.4">
<path d="M925.861 146.164C925.893 144.756 926.342 143.389 927.151 142.235C927.96 141.082 929.092 140.194 930.406 139.685C931.719 139.175 933.154 139.066 934.529 139.372C935.904 139.678 937.158 140.384 938.131 141.403C939.105 142.421 939.755 143.705 939.999 145.092C940.243 146.48 940.07 147.908 939.502 149.197C938.934 150.487 937.996 151.578 936.808 152.335C935.62 153.091 934.234 153.479 932.825 153.447C931.889 153.43 930.965 153.228 930.107 152.852C929.249 152.476 928.474 151.933 927.826 151.256C927.179 150.579 926.672 149.781 926.335 148.907C925.997 148.033 925.837 147.101 925.861 146.164Z" fill="black"/>
</g>
<g opacity="0.4">
<path d="M940.108 162.803C940.124 161.977 940.385 161.174 940.858 160.497C941.331 159.819 941.994 159.297 942.764 158.997C943.534 158.696 944.376 158.632 945.183 158.81C945.989 158.989 946.725 159.403 947.296 160C947.867 160.598 948.248 161.351 948.391 162.165C948.533 162.979 948.431 163.817 948.096 164.573C947.762 165.329 947.211 165.968 946.513 166.41C945.815 166.852 945.001 167.077 944.175 167.056C943.628 167.046 943.088 166.928 942.588 166.708C942.087 166.488 941.634 166.172 941.256 165.776C940.878 165.381 940.582 164.915 940.385 164.405C940.188 163.894 940.094 163.35 940.108 162.803Z" fill="black"/>
</g>
<g opacity="0.4">
<path d="M934.553 175.562C934.753 175.562 934.951 175.602 935.135 175.68C935.319 175.758 935.486 175.873 935.625 176.017C935.764 176.16 935.872 176.331 935.944 176.518C936.015 176.704 936.048 176.904 936.041 177.104C936.028 177.51 935.856 177.896 935.564 178.178C935.271 178.461 934.88 178.619 934.473 178.619C934.069 178.605 933.686 178.433 933.408 178.139C933.129 177.846 932.977 177.455 932.985 177.05C932.988 176.849 933.031 176.651 933.112 176.466C933.193 176.282 933.31 176.116 933.456 175.977C933.602 175.839 933.775 175.73 933.963 175.659C934.151 175.588 934.352 175.555 934.553 175.562Z" fill="black"/>
</g>
</svg>
